<svg width="1938" height="350" viewBox="0 0 1938 350" fill="none" xmlns="http://www.w3.org/2000/svg">
<path fill-rule="evenodd" clip-rule="evenodd" d="M349.12 0.605225H0.484985V349.24H349.12V0.605225ZM339.12 10.6052H10.485V339.24H104.12C233.907 339.24 339.12 246.55 339.12 104.24V10.6052Z" fill="white"/>
<path d="M27.2517 317.757L28.7814 322.465L33.7316 322.465L29.7268 325.375L31.2565 330.083L27.2517 327.173L23.247 330.083L24.7767 325.375L20.7719 322.465L25.7221 322.465L27.2517 317.757Z" fill="white"/>
<path d="M46.362 317.757L47.8917 322.465L52.8418 322.465L48.8371 325.375L50.3668 330.083L46.362 327.173L42.3573 330.083L43.887 325.375L39.8822 322.465L44.8323 322.465L46.362 317.757Z" fill="white"/>
<path d="M65.9506 317.757L67.4803 322.465L72.4304 322.465L68.4257 325.375L69.9554 330.083L65.9506 327.173L61.9459 330.083L63.4755 325.375L59.4708 322.465L64.4209 322.465L65.9506 317.757Z" fill="white"/>
<path d="M87.5392 316.757L89.0688 321.465L94.019 321.465L90.0142 324.375L91.5439 329.083L87.5392 326.173L83.5344 329.083L85.0641 324.375L81.0593 321.465L86.0095 321.465L87.5392 316.757Z" fill="white"/>
<path d="M109.626 315.757L111.155 320.465L116.105 320.465L112.101 323.375L113.63 328.083L109.626 325.173L105.621 328.083L107.151 323.375L103.146 320.465L108.096 320.465L109.626 315.757Z" fill="white"/>
<path d="M132.214 312.93L133.744 317.638L138.694 317.638L134.689 320.547L136.219 325.255L132.214 322.345L128.209 325.255L129.739 320.547L125.734 317.638L130.685 317.638L132.214 312.93Z" fill="white"/>
<path d="M156.773 306.117L158.302 310.825L163.252 310.825L159.248 313.734L160.777 318.442L156.773 315.532L152.768 318.442L154.298 313.734L150.293 310.825L155.243 310.825L156.773 306.117Z" fill="white"/>
<path d="M183.914 295.49L185.444 300.198L190.394 300.198L186.389 303.107L187.919 307.815L183.914 304.905L179.91 307.815L181.439 303.107L177.434 300.198L182.385 300.198L183.914 295.49Z" fill="white"/>
<path d="M214.347 268.35L216.825 275.977L224.844 275.977L218.357 280.69L220.835 288.317L214.347 283.604L207.859 288.317L210.337 280.69L203.85 275.977L211.869 275.977L214.347 268.35Z" fill="white"/>
<path d="M249.126 222.887L253.14 235.242L266.132 235.242L255.621 242.878L259.636 255.233L249.126 247.597L238.616 255.233L242.63 242.878L232.12 235.242L245.111 235.242L249.126 222.887Z" fill="white"/>
<path d="M275.171 145.956L281.675 165.971H302.721L285.694 178.342L292.198 198.357L275.171 185.987L258.145 198.357L264.649 178.342L247.622 165.971H268.668L275.171 145.956Z" fill="white"/>
<path d="M277.171 30.5488L287.707 62.9741H321.801L294.218 83.0141L304.754 115.439L277.171 95.3995L249.589 115.439L260.124 83.0141L232.542 62.9741H266.636L277.171 30.5488Z" fill="white"/>
<path d="M1768.64 346.972V230.852H1799.34V251.339H1800.7C1803.12 244.535 1807.15 239.168 1812.79 235.237C1818.44 231.306 1825.19 229.34 1833.05 229.34C1841.02 229.34 1847.79 231.331 1853.39 235.312C1858.98 239.244 1862.71 244.586 1864.58 251.339H1865.79C1868.16 244.687 1872.44 239.37 1878.64 235.388C1884.89 231.356 1892.27 229.34 1900.79 229.34C1911.62 229.34 1920.42 232.792 1927.17 239.697C1933.98 246.551 1937.38 256.279 1937.38 268.878V346.972H1905.25V275.229C1905.25 268.778 1903.54 263.939 1900.11 260.714C1896.68 257.488 1892.4 255.875 1887.26 255.875C1881.41 255.875 1876.85 257.74 1873.57 261.47C1870.3 265.149 1868.66 270.012 1868.66 276.06V346.972H1837.44V274.548C1837.44 268.853 1835.8 264.317 1832.52 260.94C1829.3 257.564 1825.04 255.875 1819.75 255.875C1816.17 255.875 1812.94 256.783 1810.07 258.597C1807.25 260.361 1805.01 262.856 1803.34 266.081C1801.68 269.256 1800.85 272.986 1800.85 277.27V346.972H1768.64Z" fill="#9E9E9E"/>
<path d="M1756.36 263.964L1726.88 265.779C1726.37 263.259 1725.29 260.991 1723.63 258.975C1721.96 256.909 1719.77 255.271 1717.05 254.061C1714.38 252.801 1711.18 252.171 1707.45 252.171C1702.46 252.171 1698.25 253.229 1694.82 255.346C1691.4 257.413 1689.68 260.184 1689.68 263.662C1689.68 266.434 1690.79 268.778 1693.01 270.693C1695.23 272.608 1699.03 274.145 1704.42 275.304L1725.44 279.538C1736.73 281.856 1745.15 285.586 1750.69 290.726C1756.23 295.867 1759.01 302.621 1759.01 310.987C1759.01 318.597 1756.76 325.275 1752.28 331.021C1747.84 336.766 1741.74 341.252 1733.98 344.477C1726.27 347.653 1717.38 349.24 1707.3 349.24C1691.93 349.24 1679.68 346.04 1670.56 339.639C1661.48 333.188 1656.17 324.418 1654.6 313.331L1686.28 311.667C1687.24 316.355 1689.56 319.933 1693.24 322.403C1696.91 324.822 1701.63 326.031 1707.37 326.031C1713.02 326.031 1717.55 324.948 1720.98 322.781C1724.46 320.563 1726.22 317.715 1726.27 314.238C1726.22 311.315 1724.99 308.921 1722.57 307.056C1720.15 305.141 1716.42 303.679 1711.38 302.671L1691.27 298.664C1679.93 296.396 1671.49 292.465 1665.94 286.871C1660.45 281.277 1657.7 274.145 1657.7 265.476C1657.7 258.017 1659.72 251.591 1663.75 246.199C1667.83 240.806 1673.55 236.648 1680.91 233.725C1688.32 230.802 1696.99 229.34 1706.92 229.34C1721.59 229.34 1733.13 232.44 1741.54 238.639C1750.01 244.838 1754.95 253.28 1756.36 263.964Z" fill="#9E9E9E"/>
<path d="M1612.39 346.972V230.852H1644.59V346.972H1612.39ZM1628.56 215.883C1623.78 215.883 1619.67 214.296 1616.24 211.121C1612.87 207.895 1611.18 204.04 1611.18 199.554C1611.18 195.119 1612.87 191.314 1616.24 188.139C1619.67 184.913 1623.78 183.3 1628.56 183.3C1633.35 183.3 1637.43 184.913 1640.81 188.139C1644.24 191.314 1645.95 195.119 1645.95 199.554C1645.95 204.04 1644.24 207.895 1640.81 211.121C1637.43 214.296 1633.35 215.883 1628.56 215.883Z" fill="#9E9E9E"/>
<path d="M1522.81 279.84V346.972H1490.6V230.852H1521.29V251.339H1522.65C1525.22 244.586 1529.53 239.244 1535.58 235.312C1541.63 231.331 1548.96 229.34 1557.58 229.34C1565.64 229.34 1572.68 231.104 1578.67 234.632C1584.67 238.16 1589.33 243.2 1592.66 249.752C1595.98 256.253 1597.65 264.015 1597.65 273.036V346.972H1565.44V278.782C1565.49 271.676 1563.68 266.132 1560 262.15C1556.32 258.118 1551.26 256.102 1544.8 256.102C1540.47 256.102 1536.64 257.035 1533.31 258.899C1530.04 260.764 1527.47 263.486 1525.6 267.064C1523.79 270.592 1522.86 274.851 1522.81 279.84Z" fill="#9E9E9E"/>
<path d="M1423.15 349.24C1411.41 349.24 1401.25 346.745 1392.68 341.756C1384.17 336.716 1377.59 329.71 1372.95 320.739C1368.32 311.718 1366 301.26 1366 289.366C1366 277.371 1368.32 266.888 1372.95 257.917C1377.59 248.895 1384.17 241.89 1392.68 236.9C1401.25 231.86 1411.41 229.34 1423.15 229.34C1434.89 229.34 1445.02 231.86 1453.54 236.9C1462.11 241.89 1468.71 248.895 1473.35 257.917C1477.98 266.888 1480.3 277.371 1480.3 289.366C1480.3 301.26 1477.98 311.718 1473.35 320.739C1468.71 329.71 1462.11 336.716 1453.54 341.756C1445.02 346.745 1434.89 349.24 1423.15 349.24ZM1423.3 324.292C1428.64 324.292 1433.1 322.78 1436.68 319.757C1440.26 316.682 1442.96 312.499 1444.77 307.207C1446.64 301.915 1447.57 295.892 1447.57 289.139C1447.57 282.385 1446.64 276.363 1444.77 271.071C1442.96 265.779 1440.26 261.596 1436.68 258.521C1433.1 255.447 1428.64 253.91 1423.3 253.91C1417.91 253.91 1413.37 255.447 1409.69 258.521C1406.07 261.596 1403.32 265.779 1401.45 271.071C1399.64 276.363 1398.73 282.385 1398.73 289.139C1398.73 295.892 1399.64 301.915 1401.45 307.207C1403.32 312.499 1406.07 316.682 1409.69 319.757C1413.37 322.78 1417.91 324.292 1423.3 324.292Z" fill="#9E9E9E"/>
<path d="M1323.33 346.972V230.852H1355.53V346.972H1323.33ZM1339.5 215.883C1334.72 215.883 1330.61 214.296 1327.18 211.121C1323.8 207.895 1322.12 204.04 1322.12 199.554C1322.12 195.119 1323.8 191.314 1327.18 188.139C1330.61 184.913 1334.72 183.3 1339.5 183.3C1344.29 183.3 1348.37 184.913 1351.75 188.139C1355.18 191.314 1356.89 195.119 1356.89 199.554C1356.89 204.04 1355.18 207.895 1351.75 211.121C1348.37 214.296 1344.29 215.883 1339.5 215.883Z" fill="#9E9E9E"/>
<path d="M1312.99 230.852V255.044H1243.06V230.852H1312.99ZM1258.94 203.032H1291.14V311.29C1291.14 314.263 1291.6 316.582 1292.5 318.245C1293.41 319.857 1294.67 320.991 1296.28 321.647C1297.95 322.302 1299.86 322.629 1302.03 322.629C1303.54 322.629 1305.05 322.503 1306.57 322.251C1308.08 321.949 1309.24 321.722 1310.04 321.571L1315.11 345.536C1313.5 346.04 1311.23 346.62 1308.3 347.275C1305.38 347.98 1301.83 348.409 1297.64 348.56C1289.88 348.862 1283.08 347.829 1277.23 345.46C1271.44 343.092 1266.93 339.412 1263.7 334.423C1260.48 329.433 1258.89 323.133 1258.94 315.523V203.032Z" fill="#9E9E9E"/>
<path d="M1171.49 349.165C1164.08 349.165 1157.48 347.879 1151.69 345.309C1145.89 342.688 1141.3 338.833 1137.93 333.742C1134.6 328.602 1132.94 322.201 1132.94 314.54C1132.94 308.089 1134.12 302.671 1136.49 298.286C1138.86 293.902 1142.08 290.374 1146.17 287.703C1150.25 285.031 1154.89 283.015 1160.08 281.655C1165.32 280.294 1170.81 279.336 1176.56 278.782C1183.31 278.076 1188.75 277.421 1192.89 276.816C1197.02 276.161 1200.02 275.204 1201.88 273.944C1203.75 272.684 1204.68 270.819 1204.68 268.349V267.896C1204.68 263.108 1203.17 259.403 1200.14 256.783C1197.17 254.162 1192.94 252.851 1187.44 252.851C1181.65 252.851 1177.04 254.137 1173.61 256.707C1170.18 259.227 1167.91 262.402 1166.81 266.232L1137.02 263.813C1138.53 256.757 1141.5 250.659 1145.94 245.518C1150.38 240.327 1156.1 236.346 1163.1 233.574C1170.16 230.751 1178.32 229.34 1187.6 229.34C1194.05 229.34 1200.22 230.096 1206.12 231.608C1212.06 233.12 1217.33 235.464 1221.92 238.639C1226.55 241.814 1230.21 245.896 1232.88 250.886C1235.55 255.825 1236.89 261.747 1236.89 268.652V346.972H1206.34V330.87H1205.44C1203.57 334.498 1201.08 337.699 1197.95 340.471C1194.83 343.192 1191.07 345.334 1186.69 346.897C1182.3 348.409 1177.24 349.165 1171.49 349.165ZM1180.72 326.938C1185.45 326.938 1189.64 326.006 1193.27 324.141C1196.89 322.226 1199.74 319.656 1201.81 316.43C1203.87 313.205 1204.91 309.551 1204.91 305.468V293.146C1203.9 293.801 1202.51 294.406 1200.75 294.96C1199.04 295.464 1197.1 295.943 1194.93 296.396C1192.76 296.8 1190.59 297.178 1188.43 297.53C1186.26 297.833 1184.29 298.11 1182.53 298.362C1178.75 298.916 1175.45 299.798 1172.63 301.008C1169.8 302.218 1167.61 303.856 1166.05 305.922C1164.49 307.938 1163.71 310.458 1163.71 313.482C1163.71 317.867 1165.29 321.218 1168.47 323.536C1171.69 325.804 1175.78 326.938 1180.72 326.938Z" fill="#9E9E9E"/>
<path d="M1065.24 346.972V230.852H1096.46V251.113H1097.67C1099.79 243.906 1103.34 238.462 1108.33 234.783C1113.32 231.054 1119.07 229.189 1125.57 229.189C1127.18 229.189 1128.92 229.29 1130.79 229.491C1132.65 229.693 1134.29 229.97 1135.7 230.323V258.899C1134.19 258.446 1132.1 258.043 1129.43 257.69C1126.75 257.337 1124.31 257.161 1122.09 257.161C1117.35 257.161 1113.12 258.194 1109.39 260.26C1105.71 262.276 1102.79 265.098 1100.62 268.727C1098.51 272.356 1097.45 276.539 1097.45 281.277V346.972H1065.24Z" fill="#9E9E9E"/>
<path d="M1001.57 349.24C989.628 349.24 979.346 346.821 970.728 341.983C962.16 337.094 955.558 330.189 950.921 321.269C946.284 312.297 943.966 301.688 943.966 289.441C943.966 277.497 946.284 267.014 950.921 257.992C955.558 248.971 962.084 241.94 970.501 236.9C978.968 231.86 988.897 229.34 1000.29 229.34C1007.95 229.34 1015.08 230.575 1021.68 233.044C1028.33 235.464 1034.13 239.118 1039.07 244.006C1044.06 248.895 1047.94 255.044 1050.71 262.452C1053.48 269.811 1054.87 278.429 1054.87 288.307V297.152H956.818V277.194H1024.55C1024.55 272.558 1023.55 268.45 1021.53 264.872C1019.51 261.293 1016.72 258.496 1013.14 256.48C1009.61 254.414 1005.5 253.381 1000.82 253.381C995.928 253.381 991.593 254.515 987.813 256.783C984.084 259 981.161 261.999 979.044 265.779C976.927 269.508 975.843 273.666 975.793 278.253V297.228C975.793 302.974 976.851 307.938 978.968 312.121C981.135 316.304 984.185 319.53 988.116 321.798C992.047 324.066 996.709 325.2 1002.1 325.2C1005.68 325.2 1008.96 324.696 1011.93 323.688C1014.9 322.68 1017.45 321.168 1019.56 319.152C1021.68 317.136 1023.29 314.666 1024.4 311.743L1054.19 313.709C1052.68 320.865 1049.58 327.115 1044.89 332.457C1040.25 337.749 1034.26 341.882 1026.9 344.855C1019.59 347.779 1011.15 349.24 1001.57 349.24Z" fill="#9E9E9E"/>
<path d="M933.499 192.145V346.972H901.294V192.145H933.499Z" fill="#9E9E9E"/>
<path d="M837.625 349.24C825.68 349.24 815.398 346.821 806.78 341.983C798.212 337.094 791.61 330.189 786.973 321.269C782.336 312.297 780.018 301.688 780.018 289.441C780.018 277.497 782.336 267.014 786.973 257.992C791.61 248.971 798.137 241.94 806.553 236.9C815.02 231.86 824.949 229.34 836.339 229.34C844 229.34 851.132 230.575 857.734 233.044C864.387 235.464 870.183 239.118 875.122 244.006C880.111 248.895 883.992 255.044 886.764 262.452C889.536 269.811 890.922 278.429 890.922 288.307V297.152H792.87V277.194H860.607C860.607 272.558 859.599 268.45 857.583 264.872C855.567 261.293 852.77 258.496 849.191 256.48C845.663 254.414 841.556 253.381 836.869 253.381C831.98 253.381 827.645 254.515 823.866 256.783C820.136 259 817.213 261.999 815.096 265.779C812.979 269.508 811.896 273.666 811.845 278.253V297.228C811.845 302.974 812.904 307.938 815.02 312.121C817.188 316.304 820.237 319.53 824.168 321.798C828.099 324.066 832.761 325.2 838.154 325.2C841.732 325.2 845.008 324.696 847.982 323.688C850.955 322.68 853.5 321.168 855.617 319.152C857.734 317.136 859.347 314.666 860.455 311.743L890.241 313.709C888.73 320.865 885.63 327.115 880.943 332.457C876.306 337.749 870.309 341.882 862.95 344.855C855.642 347.779 847.2 349.24 837.625 349.24Z" fill="#9E9E9E"/>
<path d="M722.869 349.24C710.975 349.24 700.744 346.72 692.176 341.68C683.658 336.59 677.106 329.534 672.52 320.513C667.984 311.491 665.716 301.109 665.716 289.366C665.716 277.471 668.009 267.039 672.596 258.068C677.232 249.046 683.809 242.016 692.327 236.976C700.844 231.885 710.975 229.34 722.718 229.34C732.848 229.34 741.718 231.18 749.329 234.859C756.939 238.538 762.962 243.704 767.397 250.357C771.832 257.009 774.276 264.821 774.73 273.792H744.339C743.482 267.996 741.214 263.334 737.535 259.806C733.906 256.228 729.144 254.439 723.247 254.439C718.257 254.439 713.898 255.8 710.168 258.521C706.489 261.192 703.616 265.098 701.55 270.239C699.484 275.38 698.45 281.604 698.45 288.912C698.45 296.321 699.458 302.621 701.474 307.812C703.541 313.003 706.439 316.959 710.168 319.681C713.898 322.403 718.257 323.763 723.247 323.763C726.926 323.763 730.227 323.007 733.15 321.495C736.124 319.983 738.568 317.791 740.484 314.918C742.449 311.995 743.734 308.492 744.339 304.41H774.73C774.226 313.28 771.807 321.092 767.472 327.846C763.188 334.549 757.267 339.79 749.707 343.57C742.147 347.35 733.201 349.24 722.869 349.24Z" fill="white"/>
<path d="M608.567 349.24C596.673 349.24 586.442 346.72 577.874 341.68C569.356 336.59 562.804 329.534 558.218 320.513C553.682 311.491 551.414 301.109 551.414 289.366C551.414 277.471 553.707 267.039 558.294 258.068C562.93 249.046 569.507 242.016 578.025 236.976C586.542 231.885 596.673 229.34 608.416 229.34C618.546 229.34 627.416 231.18 635.027 234.859C642.637 238.538 648.66 243.704 653.095 250.357C657.53 257.009 659.974 264.821 660.428 273.792H630.037C629.18 267.996 626.912 263.334 623.233 259.806C619.604 256.228 614.842 254.439 608.945 254.439C603.955 254.439 599.596 255.8 595.866 258.521C592.187 261.192 589.314 265.098 587.248 270.239C585.182 275.38 584.148 281.604 584.148 288.912C584.148 296.321 585.156 302.621 587.172 307.812C589.239 313.003 592.137 316.959 595.866 319.681C599.596 322.403 603.955 323.763 608.945 323.763C612.624 323.763 615.925 323.007 618.848 321.495C621.822 319.983 624.266 317.791 626.182 314.918C628.147 311.995 629.432 308.492 630.037 304.41H660.428C659.924 313.28 657.505 321.092 653.17 327.846C648.886 334.549 642.965 339.79 635.405 343.57C627.845 347.35 618.899 349.24 608.567 349.24Z" fill="white"/>
<path d="M440.193 346.972H405.115L458.563 192.145H500.748L554.121 346.972H519.043L480.26 227.526H479.051L440.193 346.972ZM438 286.115H520.857V311.667H438V286.115Z" fill="white"/>
<path d="M1231.08 88.3V155.432H1198.88V39.3118H1229.57V59.7991H1230.93C1233.5 53.0456 1237.81 47.7033 1243.86 43.7721C1249.91 39.7906 1257.24 37.7998 1265.86 37.7998C1273.92 37.7998 1280.95 39.5638 1286.95 43.0917C1292.95 46.6197 1297.61 51.6596 1300.94 58.2115C1304.26 64.7131 1305.93 72.4746 1305.93 81.4961V155.432H1273.72V87.2416C1273.77 80.1353 1271.96 74.5913 1268.28 70.6098C1264.6 66.5778 1259.53 64.5619 1253.08 64.5619C1248.75 64.5619 1244.92 65.4943 1241.59 67.359C1238.32 69.2238 1235.75 71.9454 1233.88 75.5237C1232.07 79.0517 1231.13 83.3104 1231.08 88.3Z" fill="#9E9E9E"/>
<path d="M1119.14 157.624C1111.74 157.624 1105.13 156.339 1099.34 153.769C1093.54 151.148 1088.95 147.292 1085.58 142.202C1082.25 137.061 1080.59 130.661 1080.59 123C1080.59 116.549 1081.77 111.131 1084.14 106.746C1086.51 102.361 1089.74 98.8334 1093.82 96.1623C1097.9 93.4911 1102.54 91.4751 1107.73 90.1143C1112.97 88.7536 1118.46 87.796 1124.21 87.2416C1130.96 86.536 1136.41 85.8808 1140.54 85.276C1144.67 84.6208 1147.67 83.6632 1149.53 82.4032C1151.4 81.1433 1152.33 79.2785 1152.33 76.8089V76.3553C1152.33 71.5674 1150.82 67.863 1147.8 65.2422C1144.82 62.6215 1140.59 61.3111 1135.1 61.3111C1129.3 61.3111 1124.69 62.5963 1121.26 65.1667C1117.83 67.6866 1115.57 70.8618 1114.46 74.6921L1084.67 72.273C1086.18 65.2171 1089.16 59.1187 1093.59 53.978C1098.03 48.7869 1103.75 44.8053 1110.75 42.0333C1117.81 39.211 1125.97 37.7998 1135.25 37.7998C1141.7 37.7998 1147.87 38.5558 1153.77 40.0678C1159.72 41.5798 1164.98 43.9233 1169.57 47.0985C1174.21 50.2736 1177.86 54.356 1180.53 59.3455C1183.2 64.2847 1184.54 70.2066 1184.54 77.1113V155.432H1154V139.329H1153.09C1151.22 142.958 1148.73 146.158 1145.6 148.93C1142.48 151.652 1138.72 153.794 1134.34 155.356C1129.95 156.868 1124.89 157.624 1119.14 157.624ZM1128.37 135.398C1133.1 135.398 1137.29 134.466 1140.92 132.601C1144.55 130.686 1147.39 128.115 1149.46 124.89C1151.53 121.664 1152.56 118.01 1152.56 113.928V101.605C1151.55 102.261 1150.16 102.865 1148.4 103.42C1146.69 103.924 1144.75 104.403 1142.58 104.856C1140.41 105.259 1138.25 105.637 1136.08 105.99C1133.91 106.293 1131.95 106.57 1130.18 106.822C1126.4 107.376 1123.1 108.258 1120.28 109.468C1117.46 110.677 1115.26 112.315 1113.7 114.382C1112.14 116.398 1111.36 118.918 1111.36 121.942C1111.36 126.326 1112.94 129.678 1116.12 131.996C1119.35 134.264 1123.43 135.398 1128.37 135.398Z" fill="#9E9E9E"/>
<path d="M1022.36 157.7C1010.42 157.7 1000.14 155.281 991.518 150.442C982.95 145.554 976.348 138.649 971.711 129.728C967.074 120.757 964.756 110.148 964.756 97.901C964.756 85.9564 967.074 75.4733 971.711 66.4518C976.348 57.4304 982.874 50.3996 991.291 45.3597C999.758 40.3198 1009.69 37.7998 1021.08 37.7998C1028.74 37.7998 1035.87 39.0346 1042.47 41.5042C1049.12 43.9233 1054.92 47.5773 1059.86 52.466C1064.85 57.3548 1068.73 63.5035 1071.5 70.9122C1074.27 78.2705 1075.66 86.8888 1075.66 96.7671V105.612H977.607V85.654H1045.34C1045.34 81.0173 1044.34 76.9097 1042.32 73.3314C1040.3 69.753 1037.51 66.9558 1033.93 64.9399C1030.4 62.8735 1026.29 61.8403 1021.61 61.8403C1016.72 61.8403 1012.38 62.9743 1008.6 65.2422C1004.87 67.4598 1001.95 70.4586 999.834 74.2385C997.717 77.9681 996.633 82.126 996.583 86.7124V105.688C996.583 111.433 997.641 116.398 999.758 120.581C1001.93 124.764 1004.97 127.989 1008.91 130.257C1012.84 132.525 1017.5 133.659 1022.89 133.659C1026.47 133.659 1029.75 133.155 1032.72 132.147C1035.69 131.139 1038.24 129.627 1040.35 127.611C1042.47 125.595 1044.08 123.126 1045.19 120.203L1074.98 122.168C1073.47 129.325 1070.37 135.575 1065.68 140.917C1061.04 146.209 1055.05 150.342 1047.69 153.315C1040.38 156.238 1031.94 157.7 1022.36 157.7Z" fill="#9E9E9E"/>
<path d="M845.37 198.977V39.3118H877.121V58.8163H878.558C879.969 55.6916 882.01 52.5164 884.681 49.2909C887.403 46.0149 890.931 43.2933 895.265 41.1262C899.65 38.9086 905.093 37.7998 911.594 37.7998C920.062 37.7998 927.873 40.0174 935.03 44.4525C942.187 48.8373 947.907 55.4648 952.191 64.3351C956.475 73.155 958.617 84.2176 958.617 97.523C958.617 110.476 956.525 121.412 952.342 130.333C948.21 139.203 942.565 145.932 935.408 150.518C928.302 155.054 920.339 157.322 911.519 157.322C905.269 157.322 899.952 156.289 895.567 154.222C891.233 152.156 887.68 149.56 884.908 146.436C882.136 143.26 880.019 140.06 878.558 136.835H877.575V198.977H845.37ZM876.894 97.3719C876.894 104.277 877.852 110.299 879.767 115.44C881.682 120.581 884.454 124.588 888.083 127.46C891.712 130.283 896.122 131.694 901.313 131.694C906.555 131.694 910.99 130.257 914.618 127.385C918.247 124.462 920.994 120.43 922.859 115.289C924.774 110.098 925.731 104.125 925.731 97.3719C925.731 90.6687 924.799 84.772 922.934 79.6817C921.07 74.5913 918.323 70.6098 914.694 67.737C911.065 64.8643 906.605 63.4279 901.313 63.4279C896.071 63.4279 891.636 64.8139 888.008 67.5858C884.429 70.3578 881.682 74.2889 879.767 79.3793C877.852 84.4696 876.894 90.4671 876.894 97.3719Z" fill="#9E9E9E"/>
<path d="M777.92 157.7C766.177 157.7 756.022 155.205 747.454 150.216C738.936 145.176 732.359 138.17 727.722 129.199C723.086 120.178 720.767 109.72 720.767 97.8254C720.767 85.8304 723.086 75.3473 727.722 66.3762C732.359 57.3548 738.936 50.3492 747.454 45.3597C756.022 40.3198 766.177 37.7998 777.92 37.7998C789.663 37.7998 799.793 40.3198 808.311 45.3597C816.879 50.3492 823.481 57.3548 828.118 66.3762C832.755 75.3473 835.073 85.8304 835.073 97.8254C835.073 109.72 832.755 120.178 828.118 129.199C823.481 138.17 816.879 145.176 808.311 150.216C799.793 155.205 789.663 157.7 777.92 157.7ZM778.071 132.752C783.414 132.752 787.874 131.24 791.452 128.216C795.031 125.142 797.727 120.959 799.541 115.667C801.406 110.375 802.339 104.352 802.339 97.5986C802.339 90.8451 801.406 84.8224 799.541 79.5305C797.727 74.2385 795.031 70.0554 791.452 66.981C787.874 63.9067 783.414 62.3695 778.071 62.3695C772.679 62.3695 768.143 63.9067 764.464 66.981C760.835 70.0554 758.088 74.2385 756.223 79.5305C754.409 84.8224 753.502 90.8451 753.502 97.5986C753.502 104.352 754.409 110.375 756.223 115.667C758.088 120.959 760.835 125.142 764.464 128.216C768.143 131.24 772.679 132.752 778.071 132.752Z" fill="#9E9E9E"/>
<path d="M654.395 155.432V39.3119H685.617V59.5724H686.827C688.944 52.3653 692.497 46.9222 697.487 43.243C702.476 39.5135 708.222 37.6487 714.723 37.6487C716.336 37.6487 718.075 37.7495 719.939 37.9511C721.804 38.1527 723.442 38.4299 724.853 38.7827V67.3591C723.341 66.9055 721.25 66.5023 718.579 66.1495C715.908 65.7967 713.463 65.6203 711.246 65.6203C706.508 65.6203 702.274 66.6535 698.545 68.7199C694.866 70.7359 691.943 73.5582 689.775 77.187C687.659 80.8157 686.6 84.9989 686.6 89.7364V155.432H654.395Z" fill="#9E9E9E"/>
<path d="M607.074 105.99V39.3118H639.279V155.432H608.359V134.34H607.149C604.529 141.144 600.169 146.612 594.071 150.745C588.023 154.878 580.639 156.944 571.92 156.944C564.159 156.944 557.33 155.18 551.433 151.652C545.536 148.124 540.925 143.109 537.598 136.608C534.322 130.106 532.659 122.32 532.609 113.248V39.3118H564.814V107.502C564.864 114.356 566.704 119.774 570.333 123.756C573.961 127.737 578.825 129.728 584.923 129.728C588.804 129.728 592.433 128.846 595.81 127.082C599.186 125.268 601.908 122.597 603.974 119.069C606.091 115.541 607.124 111.181 607.074 105.99Z" fill="white"/>
<path d="M413.506 155.432V0.605225H517.833V27.5941H446.241V64.4864H512.465V91.4753H446.241V128.443H518.135V155.432H413.506Z" fill="white"/>
</svg>
