<svg width="349" height="350" viewBox="0 0 349 350" fill="none" xmlns="http://www.w3.org/2000/svg">
<path fill-rule="evenodd" clip-rule="evenodd" d="M348.635 0.605225H0V349.24H348.635V0.605225ZM338.635 10.6052H10V339.24H103.635C233.422 339.24 338.635 246.55 338.635 104.24V10.6052Z" fill="white"/>
<path d="M26.7668 317.757L28.2965 322.465L33.2466 322.465L29.2419 325.375L30.7715 330.083L26.7668 327.173L22.762 330.083L24.2917 325.375L20.287 322.465L25.2371 322.465L26.7668 317.757Z" fill="white"/>
<path d="M45.877 317.757L47.4067 322.465L52.3568 322.465L48.3521 325.375L49.8818 330.083L45.877 327.173L41.8723 330.083L43.4019 325.375L39.3972 322.465L44.3473 322.465L45.877 317.757Z" fill="white"/>
<path d="M65.4656 317.757L66.9953 322.465L71.9455 322.465L67.9407 325.375L69.4704 330.083L65.4656 327.173L61.4609 330.083L62.9906 325.375L58.9858 322.465L63.936 322.465L65.4656 317.757Z" fill="white"/>
<path d="M87.0542 316.757L88.5839 321.465L93.534 321.465L89.5293 324.375L91.0589 329.083L87.0542 326.173L83.0494 329.083L84.5791 324.375L80.5744 321.465L85.5245 321.465L87.0542 316.757Z" fill="white"/>
<path d="M109.141 315.757L110.67 320.465L115.621 320.465L111.616 323.375L113.145 328.083L109.141 325.173L105.136 328.083L106.666 323.375L102.661 320.465L107.611 320.465L109.141 315.757Z" fill="white"/>
<path d="M131.729 312.93L133.259 317.638L138.209 317.638L134.204 320.547L135.734 325.255L131.729 322.345L127.724 325.255L129.254 320.547L125.249 317.638L130.2 317.638L131.729 312.93Z" fill="white"/>
<path d="M156.288 306.117L157.817 310.825L162.767 310.825L158.763 313.734L160.292 318.442L156.288 315.532L152.283 318.442L153.813 313.734L149.808 310.825L154.758 310.825L156.288 306.117Z" fill="white"/>
<path d="M183.429 295.49L184.959 300.198L189.909 300.198L185.904 303.107L187.434 307.815L183.429 304.905L179.425 307.815L180.954 303.107L176.949 300.198L181.9 300.198L183.429 295.49Z" fill="white"/>
<path d="M213.862 268.35L216.34 275.977L224.359 275.977L217.872 280.69L220.35 288.317L213.862 283.604L207.374 288.317L209.852 280.69L203.365 275.977L211.384 275.977L213.862 268.35Z" fill="white"/>
<path d="M248.641 222.887L252.655 235.242L265.647 235.242L255.137 242.878L259.151 255.233L248.641 247.597L238.131 255.233L242.145 242.878L231.635 235.242L244.626 235.242L248.641 222.887Z" fill="white"/>
<path d="M274.686 145.956L281.19 165.971H302.236L285.209 178.342L291.713 198.357L274.686 185.987L257.66 198.357L264.164 178.342L247.137 165.971H268.183L274.686 145.956Z" fill="white"/>
<path d="M276.686 30.5488L287.222 62.9741H321.316L293.733 83.0141L304.269 115.439L276.686 95.3995L249.104 115.439L259.639 83.0141L232.057 62.9741H266.151L276.686 30.5488Z" fill="white"/>
</svg>
