<?xml version="1.0" encoding="UTF-8" standalone="no"?>
<svg
   width="1936.895"
   height="348.63501"
   viewBox="0 0 1936.895 348.63501"
   fill="none"
   version="1.1"
   id="svg74"
   sodipodi:docname="eu-acc-logo-black.svg"
   xmlns:inkscape="http://www.inkscape.org/namespaces/inkscape"
   xmlns:sodipodi="http://sodipodi.sourceforge.net/DTD/sodipodi-0.dtd"
   xmlns="http://www.w3.org/2000/svg"
   xmlns:svg="http://www.w3.org/2000/svg">
  <defs
     id="defs78" />
  <sodipodi:namedview
     id="namedview76"
     pagecolor="#ffffff"
     bordercolor="#000000"
     borderopacity="0.25"
     inkscape:showpageshadow="2"
     inkscape:pageopacity="0.0"
     inkscape:pagecheckerboard="0"
     inkscape:deskcolor="#d1d1d1"
     showgrid="false" />
  <path
     fill-rule="evenodd"
     clip-rule="evenodd"
     d="M 348.63503,0 H 0 v 348.635 h 348.63503 z m -10,10 h -328.635 v 328.635 h 93.635 c 129.787,0 235,-92.69 235,-235 z"
     fill="#000000"
     id="path2" />
  <path
     d="m 26.76673,317.152 1.5297,4.708 h 4.9501 l -4.0047,2.91 1.5297,4.707 -4.0048,-2.909 -4.0047,2.909 1.5296,-4.707 -4.0047,-2.91 h 4.9501 z"
     fill="#000000"
     id="path4" />
  <path
     d="m 45.87703,317.152 1.5297,4.708 h 4.9501 l -4.0047,2.91 1.5297,4.707 -4.0048,-2.909 -4.0047,2.909 1.5296,-4.707 -4.0047,-2.91 h 4.9501 z"
     fill="#000000"
     id="path6" />
  <path
     d="m 65.46563,317.152 1.5297,4.708 h 4.9501 l -4.0047,2.91 1.5296,4.707 -4.0047,-2.909 -4.0048,2.909 1.5297,-4.707 -4.0047,-2.91 h 4.9501 z"
     fill="#000000"
     id="path8" />
  <path
     d="m 87.05413,316.152 1.5297,4.708 h 4.9502 l -4.0048,2.91 1.5297,4.707 -4.0048,-2.909 -4.0047,2.909 1.5297,-4.707 -4.0048,-2.91 h 4.9502 z"
     fill="#000000"
     id="path10" />
  <path
     d="m 109.14103,315.152 1.529,4.708 h 4.95 l -4.004,2.91 1.529,4.707 -4.004,-2.909 -4.005,2.909 1.53,-4.707 -4.005,-2.91 h 4.95 z"
     fill="#000000"
     id="path12" />
  <path
     d="m 131.72903,312.324 1.53,4.708 h 4.95 l -4.005,2.91 1.53,4.708 -4.005,-2.91 -4.005,2.91 1.53,-4.708 -4.005,-2.91 h 4.951 z"
     fill="#000000"
     id="path14" />
  <path
     d="m 156.28803,305.511 1.529,4.708 h 4.95 l -4.004,2.91 1.529,4.708 -4.004,-2.91 -4.005,2.91 1.53,-4.708 -4.005,-2.91 h 4.95 z"
     fill="#000000"
     id="path16" />
  <path
     d="m 183.42903,294.885 1.53,4.707 h 4.95 l -4.005,2.91 1.53,4.708 -4.005,-2.91 -4.004,2.91 1.529,-4.708 -4.005,-2.91 h 4.951 z"
     fill="#000000"
     id="path18" />
  <path
     d="m 213.86203,267.745 2.478,7.627 h 8.019 l -6.487,4.713 2.478,7.627 -6.488,-4.714 -6.488,4.714 2.478,-7.627 -6.487,-4.713 h 8.019 z"
     fill="#000000"
     id="path20" />
  <path
     d="m 248.64103,222.281 4.014,12.356 h 12.992 l -10.511,7.636 4.015,12.355 -10.51,-7.636 -10.51,7.636 4.014,-12.355 -10.51,-7.636 h 12.991 z"
     fill="#000000"
     id="path22" />
  <path
     d="m 274.68603,145.351 6.504,20.015 h 21.046 l -17.027,12.371 6.504,20.015 -17.027,-12.37 -17.026,12.37 6.504,-20.015 -17.027,-12.371 h 21.046 z"
     fill="#000000"
     id="path24" />
  <path
     d="m 276.68603,29.9436 10.536,32.4253 h 34.094 l -27.583,20.04 10.536,32.4251 -27.583,-20.0398 -27.582,20.0398 10.535,-32.4251 -27.582,-20.04 h 34.094 z"
     fill="#000000"
     id="path26" />
  <path
     d="m 1768.155,346.367 v -116.12 h 30.7 v 20.487 h 1.36 c 2.42,-6.804 6.45,-12.171 12.09,-16.102 5.65,-3.932 12.4,-5.897 20.26,-5.897 7.97,0 14.74,1.991 20.34,5.972 5.59,3.931 9.32,9.274 11.19,16.027 h 1.21 c 2.37,-6.653 6.65,-11.97 12.85,-15.951 6.25,-4.032 13.63,-6.048 22.15,-6.048 10.83,0 19.63,3.452 26.38,10.357 6.81,6.854 10.21,16.581 10.21,29.181 v 78.094 h -32.13 v -71.744 c 0,-6.451 -1.71,-11.289 -5.14,-14.515 -3.43,-3.225 -7.71,-4.838 -12.85,-4.838 -5.85,0 -10.41,1.865 -13.69,5.594 -3.27,3.68 -4.91,8.543 -4.91,14.591 v 70.912 h -31.22 v -72.424 c 0,-5.695 -1.64,-10.231 -4.92,-13.608 -3.22,-3.376 -7.48,-5.065 -12.77,-5.065 -3.58,0 -6.81,0.907 -9.68,2.722 -2.82,1.764 -5.06,4.258 -6.73,7.484 -1.66,3.175 -2.49,6.905 -2.49,11.189 v 69.702 z"
     fill="#9e9e9e"
     id="path28" />
  <path
     d="m 1755.875,263.359 -29.48,1.815 c -0.51,-2.52 -1.59,-4.788 -3.25,-6.804 -1.67,-2.067 -3.86,-3.705 -6.58,-4.914 -2.67,-1.26 -5.87,-1.89 -9.6,-1.89 -4.99,0 -9.2,1.058 -12.63,3.175 -3.42,2.066 -5.14,4.838 -5.14,8.316 0,2.772 1.11,5.115 3.33,7.031 2.22,1.915 6.02,3.452 11.41,4.611 l 21.02,4.234 c 11.29,2.318 19.71,6.048 25.25,11.188 5.54,5.141 8.32,11.895 8.32,20.261 0,7.61 -2.25,14.288 -6.73,20.034 -4.44,5.745 -10.54,10.231 -18.3,13.456 -7.71,3.175 -16.6,4.763 -26.68,4.763 -15.37,0 -27.62,-3.2 -36.74,-9.601 -9.08,-6.451 -14.39,-15.221 -15.96,-26.309 l 31.68,-1.663 c 0.96,4.687 3.28,8.266 6.96,10.735 3.67,2.419 8.39,3.629 14.13,3.629 5.65,0 10.18,-1.084 13.61,-3.251 3.48,-2.217 5.24,-5.065 5.29,-8.542 -0.05,-2.924 -1.28,-5.318 -3.7,-7.182 -2.42,-1.916 -6.15,-3.377 -11.19,-4.385 l -20.11,-4.007 c -11.34,-2.268 -19.78,-6.199 -25.33,-11.793 -5.49,-5.595 -8.24,-12.726 -8.24,-21.395 0,-7.459 2.02,-13.885 6.05,-19.278 4.08,-5.392 9.8,-9.55 17.16,-12.473 7.41,-2.924 16.08,-4.385 26.01,-4.385 14.67,0 26.21,3.099 34.62,9.299 8.47,6.199 13.41,14.641 14.82,25.325 z"
     fill="#9e9e9e"
     id="path30" />
  <path
     d="m 1611.905,346.367 v -116.12 h 32.2 v 116.12 z m 16.17,-131.089 c -4.78,0 -8.89,-1.587 -12.32,-4.762 -3.38,-3.226 -5.06,-7.082 -5.06,-11.567 0,-4.435 1.68,-8.24 5.06,-11.416 3.43,-3.225 7.54,-4.838 12.32,-4.838 4.79,0 8.87,1.613 12.25,4.838 3.43,3.176 5.14,6.981 5.14,11.416 0,4.485 -1.71,8.341 -5.14,11.567 -3.38,3.175 -7.46,4.762 -12.25,4.762 z"
     fill="#9e9e9e"
     id="path32" />
  <path
     d="m 1522.325,279.235 v 67.132 h -32.21 v -116.12 h 30.69 v 20.487 h 1.36 c 2.57,-6.753 6.88,-12.096 12.93,-16.027 6.05,-3.981 13.38,-5.972 22,-5.972 8.06,0 15.1,1.764 21.09,5.292 6,3.528 10.66,8.568 13.99,15.12 3.32,6.501 4.99,14.263 4.99,23.284 v 73.936 h -32.21 v -68.19 c 0.05,-7.107 -1.76,-12.651 -5.44,-16.632 -3.68,-4.032 -8.74,-6.048 -15.2,-6.048 -4.33,0 -8.16,0.932 -11.49,2.797 -3.27,1.865 -5.84,4.586 -7.71,8.165 -1.81,3.528 -2.74,7.786 -2.79,12.776 z"
     fill="#9e9e9e"
     id="path34" />
  <path
     d="m 1422.665,348.635 c -11.74,0 -21.9,-2.495 -30.47,-7.484 -8.51,-5.04 -15.09,-12.046 -19.73,-21.017 -4.63,-9.021 -6.95,-19.479 -6.95,-31.374 0,-11.995 2.32,-22.478 6.95,-31.449 4.64,-9.021 11.22,-16.027 19.73,-21.016 8.57,-5.04 18.73,-7.56 30.47,-7.56 11.74,0 21.87,2.52 30.39,7.56 8.57,4.989 15.17,11.995 19.81,21.016 4.63,8.971 6.95,19.454 6.95,31.449 0,11.895 -2.32,22.353 -6.95,31.374 -4.64,8.971 -11.24,15.977 -19.81,21.017 -8.52,4.989 -18.65,7.484 -30.39,7.484 z m 0.15,-24.948 c 5.34,0 9.8,-1.512 13.38,-4.536 3.58,-3.074 6.28,-7.257 8.09,-12.549 1.87,-5.292 2.8,-11.315 2.8,-18.068 0,-6.754 -0.93,-12.777 -2.8,-18.068 -1.81,-5.292 -4.51,-9.476 -8.09,-12.55 -3.58,-3.074 -8.04,-4.611 -13.38,-4.611 -5.39,0 -9.93,1.537 -13.61,4.611 -3.62,3.074 -6.37,7.258 -8.24,12.55 -1.81,5.291 -2.72,11.314 -2.72,18.068 0,6.753 0.91,12.776 2.72,18.068 1.87,5.292 4.62,9.475 8.24,12.549 3.68,3.024 8.22,4.536 13.61,4.536 z"
     fill="#9e9e9e"
     id="path36" />
  <path
     d="m 1322.845,346.367 v -116.12 h 32.2 v 116.12 z m 16.17,-131.089 c -4.78,0 -8.89,-1.587 -12.32,-4.762 -3.38,-3.226 -5.06,-7.082 -5.06,-11.567 0,-4.435 1.68,-8.24 5.06,-11.416 3.43,-3.225 7.54,-4.838 12.32,-4.838 4.79,0 8.87,1.613 12.25,4.838 3.43,3.176 5.14,6.981 5.14,11.416 0,4.485 -1.71,8.341 -5.14,11.567 -3.38,3.175 -7.46,4.762 -12.25,4.762 z"
     fill="#9e9e9e"
     id="path38" />
  <path
     d="m 1312.505,230.247 v 24.192 h -69.93 v -24.192 z m -54.05,-27.82 h 32.2 v 108.257 c 0,2.974 0.46,5.292 1.36,6.955 0.91,1.613 2.17,2.747 3.78,3.402 1.67,0.656 3.58,0.983 5.75,0.983 1.51,0 3.02,-0.126 4.54,-0.378 1.51,-0.302 2.67,-0.529 3.47,-0.68 l 5.07,23.965 c -1.61,0.504 -3.88,1.083 -6.81,1.739 -2.92,0.705 -6.47,1.133 -10.66,1.285 -7.76,0.302 -14.56,-0.731 -20.41,-3.1 -5.79,-2.369 -10.3,-6.048 -13.53,-11.037 -3.22,-4.99 -4.81,-11.29 -4.76,-18.9 z"
     fill="#9e9e9e"
     id="path40" />
  <path
     d="m 1171.005,348.559 c -7.41,0 -14.01,-1.285 -19.8,-3.855 -5.8,-2.621 -10.39,-6.477 -13.76,-11.567 -3.33,-5.141 -4.99,-11.541 -4.99,-19.202 0,-6.451 1.18,-11.869 3.55,-16.254 2.37,-4.385 5.59,-7.912 9.68,-10.584 4.08,-2.671 8.72,-4.687 13.91,-6.048 5.24,-1.36 10.73,-2.318 16.48,-2.872 6.75,-0.706 12.19,-1.361 16.33,-1.966 4.13,-0.655 7.13,-1.613 8.99,-2.873 1.87,-1.26 2.8,-3.124 2.8,-5.594 v -0.454 c 0,-4.788 -1.51,-8.492 -4.54,-11.113 -2.97,-2.62 -7.2,-3.931 -12.7,-3.931 -5.79,0 -10.4,1.285 -13.83,3.856 -3.43,2.52 -5.7,5.695 -6.8,9.525 l -29.79,-2.419 c 1.51,-7.056 4.48,-13.154 8.92,-18.295 4.44,-5.191 10.16,-9.173 17.16,-11.945 7.06,-2.822 15.22,-4.233 24.5,-4.233 6.45,0 12.62,0.756 18.52,2.268 5.94,1.512 11.21,3.855 15.8,7.031 4.63,3.175 8.29,7.257 10.96,12.247 2.67,4.939 4.01,10.861 4.01,17.765 v 78.321 h -30.55 v -16.103 h -0.9 c -1.87,3.629 -4.36,6.83 -7.49,9.601 -3.12,2.722 -6.88,4.864 -11.26,6.426 -4.39,1.512 -9.45,2.268 -15.2,2.268 z m 9.23,-22.226 c 4.73,0 8.92,-0.932 12.55,-2.797 3.62,-1.915 6.47,-4.485 8.54,-7.711 2.06,-3.226 3.1,-6.88 3.1,-10.962 V 292.54 c -1.01,0.656 -2.4,1.26 -4.16,1.815 -1.71,0.504 -3.65,0.983 -5.82,1.436 -2.17,0.403 -4.34,0.781 -6.5,1.134 -2.17,0.303 -4.14,0.58 -5.9,0.832 -3.78,0.554 -7.08,1.436 -9.9,2.646 -2.83,1.209 -5.02,2.847 -6.58,4.914 -1.56,2.016 -2.34,4.536 -2.34,7.56 0,4.384 1.58,7.736 4.76,10.054 3.22,2.268 7.31,3.402 12.25,3.402 z"
     fill="#9e9e9e"
     id="path42" />
  <path
     d="m 1064.755,346.367 v -116.12 h 31.22 v 20.26 h 1.21 c 2.12,-7.207 5.67,-12.65 10.66,-16.329 4.99,-3.729 10.74,-5.594 17.24,-5.594 1.61,0 3.35,0.101 5.22,0.302 1.86,0.202 3.5,0.479 4.91,0.832 v 28.576 c -1.51,-0.453 -3.6,-0.857 -6.27,-1.209 -2.68,-0.353 -5.12,-0.53 -7.34,-0.53 -4.74,0 -8.97,1.034 -12.7,3.1 -3.68,2.016 -6.6,4.838 -8.77,8.467 -2.11,3.629 -3.17,7.812 -3.17,12.549 v 65.696 z"
     fill="#9e9e9e"
     id="path44" />
  <path
     d="m 1001.085,348.635 c -11.94197,0 -22.22397,-2.419 -30.84197,-7.258 -8.568,-4.888 -15.17,-11.793 -19.807,-20.714 -4.637,-8.971 -6.955,-19.58 -6.955,-31.827 0,-11.945 2.318,-22.428 6.955,-31.449 4.637,-9.022 11.163,-16.052 19.58,-21.092 8.467,-5.04 18.396,-7.56 29.789,-7.56 7.65997,0 14.78997,1.235 21.38997,3.704 6.65,2.419 12.45,6.073 17.39,10.962 4.99,4.889 8.87,11.038 11.64,18.446 2.77,7.359 4.16,15.977 4.16,25.855 v 8.845 h -98.05197 v -19.958 h 67.73197 c 0,-4.637 -1,-8.744 -3.02,-12.323 -2.02,-3.578 -4.81,-6.375 -8.39,-8.391 -3.53,-2.066 -7.64,-3.1 -12.32,-3.1 -4.89197,0 -9.22697,1.134 -13.00697,3.402 -3.729,2.218 -6.652,5.217 -8.769,8.997 -2.117,3.729 -3.201,7.887 -3.251,12.473 v 18.976 c 0,5.745 1.058,10.71 3.175,14.893 2.167,4.183 5.217,7.409 9.148,9.676 3.931,2.268 8.593,3.402 13.98397,3.402 3.58,0 6.86,-0.504 9.83,-1.512 2.97,-1.008 5.52,-2.52 7.63,-4.535 2.12,-2.016 3.73,-4.486 4.84,-7.409 l 29.79,1.965 c -1.51,7.157 -4.61,13.407 -9.3,18.749 -4.64,5.292 -10.63,9.425 -17.99,12.398 -7.31,2.923 -15.75,4.385 -25.33,4.385 z"
     fill="#9e9e9e"
     id="path46" />
  <path
     d="m 933.01403,191.54 v 154.827 h -32.205 V 191.54 Z"
     fill="#9e9e9e"
     id="path48" />
  <path
     d="m 837.14003,348.635 c -11.945,0 -22.227,-2.419 -30.845,-7.258 -8.568,-4.888 -15.17,-11.793 -19.807,-20.714 -4.637,-8.971 -6.955,-19.58 -6.955,-31.827 0,-11.945 2.318,-22.428 6.955,-31.449 4.637,-9.022 11.164,-16.052 19.58,-21.092 8.467,-5.04 18.396,-7.56 29.786,-7.56 7.661,0 14.793,1.235 21.395,3.704 6.653,2.419 12.449,6.073 17.388,10.962 4.989,4.889 8.87,11.038 11.642,18.446 2.772,7.359 4.158,15.977 4.158,25.855 v 8.845 h -98.052 v -19.958 h 67.737 c 0,-4.637 -1.008,-8.744 -3.024,-12.323 -2.016,-3.578 -4.813,-6.375 -8.392,-8.391 -3.528,-2.066 -7.635,-3.1 -12.322,-3.1 -4.889,0 -9.224,1.134 -13.003,3.402 -3.73,2.218 -6.653,5.217 -8.77,8.997 -2.117,3.729 -3.2,7.887 -3.251,12.473 v 18.976 c 0,5.745 1.059,10.71 3.175,14.893 2.168,4.183 5.217,7.409 9.148,9.676 3.931,2.268 8.593,3.402 13.986,3.402 3.578,0 6.854,-0.504 9.828,-1.512 2.973,-1.008 5.518,-2.52 7.635,-4.535 2.117,-2.016 3.73,-4.486 4.838,-7.409 l 29.786,1.965 c -1.511,7.157 -4.611,13.407 -9.298,18.749 -4.637,5.292 -10.634,9.425 -17.993,12.398 -7.308,2.923 -15.75,4.385 -25.325,4.385 z"
     fill="#9e9e9e"
     id="path50" />
  <path
     d="m 722.38403,348.635 c -11.894,0 -22.125,-2.52 -30.693,-7.56 -8.518,-5.09 -15.07,-12.146 -19.656,-21.168 -4.536,-9.021 -6.804,-19.403 -6.804,-31.147 0,-11.894 2.293,-22.326 6.88,-31.298 4.636,-9.021 11.213,-16.052 19.731,-21.092 8.517,-5.09 18.648,-7.635 30.391,-7.635 10.13,0 19,1.839 26.611,5.519 7.61,3.679 13.633,8.845 18.068,15.497 4.435,6.653 6.879,14.465 7.333,23.436 h -30.391 c -0.857,-5.796 -3.125,-10.458 -6.804,-13.986 -3.629,-3.578 -8.391,-5.367 -14.288,-5.367 -4.99,0 -9.349,1.361 -13.079,4.082 -3.679,2.671 -6.552,6.577 -8.618,11.718 -2.066,5.141 -3.1,11.365 -3.1,18.673 0,7.409 1.008,13.709 3.024,18.9 2.067,5.191 4.965,9.147 8.694,11.869 3.73,2.721 8.089,4.082 13.079,4.082 3.679,0 6.98,-0.756 9.903,-2.268 2.974,-1.512 5.418,-3.704 7.334,-6.577 1.965,-2.923 3.25,-6.426 3.855,-10.508 h 30.391 c -0.504,8.87 -2.923,16.682 -7.258,23.435 -4.284,6.704 -10.205,11.945 -17.765,15.725 -7.56,3.78 -16.506,5.67 -26.838,5.67 z"
     fill="#000000"
     id="path52" />
  <path
     d="m 608.08203,348.635 c -11.894,0 -22.125,-2.52 -30.693,-7.56 -8.518,-5.09 -15.07,-12.146 -19.656,-21.168 -4.536,-9.021 -6.804,-19.403 -6.804,-31.147 0,-11.894 2.293,-22.326 6.88,-31.298 4.636,-9.021 11.213,-16.052 19.731,-21.092 8.517,-5.09 18.648,-7.635 30.391,-7.635 10.13,0 19,1.839 26.611,5.519 7.61,3.679 13.633,8.845 18.068,15.497 4.435,6.653 6.879,14.465 7.333,23.436 h -30.391 c -0.857,-5.796 -3.125,-10.458 -6.804,-13.986 -3.629,-3.578 -8.391,-5.367 -14.288,-5.367 -4.99,0 -9.349,1.361 -13.079,4.082 -3.679,2.671 -6.552,6.577 -8.618,11.718 -2.066,5.141 -3.1,11.365 -3.1,18.673 0,7.409 1.008,13.709 3.024,18.9 2.067,5.191 4.965,9.147 8.694,11.869 3.73,2.721 8.089,4.082 13.079,4.082 3.679,0 6.98,-0.756 9.903,-2.268 2.974,-1.512 5.418,-3.704 7.334,-6.577 1.965,-2.923 3.25,-6.426 3.855,-10.508 h 30.391 c -0.504,8.87 -2.923,16.682 -7.258,23.435 -4.284,6.704 -10.205,11.945 -17.765,15.725 -7.56,3.78 -16.506,5.67 -26.838,5.67 z"
     fill="#000000"
     id="path54" />
  <path
     d="m 439.70803,346.367 h -35.078 l 53.448,-154.827 h 42.185 l 53.373,154.827 h -35.078 l -38.783,-119.447 h -1.209 z m -2.193,-60.857 h 82.857 v 25.552 h -82.857 z"
     fill="#000000"
     id="path56" />
  <path
     d="m 1230.595,87.6947 v 67.1323 h -32.2 V 38.7066 h 30.69 v 20.4873 h 1.36 c 2.57,-6.7535 6.88,-12.0958 12.93,-16.027 6.05,-3.9815 13.38,-5.9723 22,-5.9723 8.06,0 15.09,1.764 21.09,5.2919 6,3.528 10.66,8.5679 13.99,15.1198 3.32,6.5015 4.99,14.263 4.99,23.2845 v 73.9362 h -32.21 V 86.6364 c 0.05,-7.1064 -1.76,-12.6503 -5.44,-16.6318 -3.68,-4.032 -8.75,-6.048 -15.2,-6.048 -4.33,0 -8.16,0.9324 -11.49,2.7972 -3.27,1.8648 -5.84,4.5863 -7.71,8.1647 -1.81,3.528 -2.75,7.7867 -2.8,12.7762 z"
     fill="#9e9e9e"
     id="path58" />
  <path
     d="m 1118.655,157.019 c -7.4,0 -14.01,-1.285 -19.8,-3.855 -5.8,-2.621 -10.39,-6.477 -13.76,-11.567 -3.33,-5.141 -4.99,-11.542 -4.99,-19.202 0,-6.451 1.18,-11.869 3.55,-16.254 2.37,-4.385 5.6,-7.9128 9.68,-10.584 4.08,-2.6711 8.72,-4.6871 13.91,-6.0479 5.24,-1.3608 10.73,-2.3184 16.48,-2.8727 6.75,-0.7056 12.2,-1.3608 16.33,-1.9656 4.13,-0.6552 7.13,-1.6128 8.99,-2.8728 1.87,-1.26 2.8,-3.1247 2.8,-5.5943 v -0.4536 c 0,-4.7879 -1.51,-8.4923 -4.53,-11.1131 -2.98,-2.6207 -7.21,-3.9311 -12.7,-3.9311 -5.8,0 -10.41,1.2852 -13.84,3.8555 -3.43,2.52 -5.69,5.6952 -6.8,9.5255 l -29.79,-2.4192 c 1.51,-7.0559 4.49,-13.1542 8.92,-18.2949 4.44,-5.1912 10.16,-9.1727 17.16,-11.9447 7.06,-2.8223 15.22,-4.2335 24.5,-4.2335 6.45,0 12.62,0.756 18.52,2.2679 5.95,1.512 11.21,3.8556 15.8,7.0308 4.64,3.1751 8.29,7.2575 10.96,12.247 2.67,4.9391 4.01,10.8611 4.01,17.7658 v 78.3209 h -30.54 v -16.103 h -0.91 c -1.87,3.629 -4.36,6.829 -7.49,9.601 -3.12,2.722 -6.88,4.864 -11.26,6.426 -4.39,1.512 -9.45,2.268 -15.2,2.268 z m 9.23,-22.226 c 4.73,0 8.92,-0.932 12.55,-2.797 3.63,-1.915 6.47,-4.486 8.54,-7.711 2.07,-3.226 3.1,-6.88 3.1,-10.962 V 101 c -1.01,0.655 -2.4,1.26 -4.16,1.815 -1.71,0.504 -3.65,0.982 -5.82,1.436 -2.17,0.403 -4.33,0.781 -6.5,1.134 -2.17,0.302 -4.13,0.58 -5.9,0.832 -3.78,0.554 -7.08,1.436 -9.9,2.645 -2.82,1.21 -5.02,2.848 -6.58,4.914 -1.56,2.016 -2.34,4.536 -2.34,7.56 0,4.385 1.58,7.737 4.76,10.055 3.23,2.268 7.31,3.402 12.25,3.402 z"
     fill="#9e9e9e"
     id="path60" />
  <path
     d="m 1021.875,157.095 c -11.94,0 -22.21997,-2.42 -30.84197,-7.258 -8.568,-4.889 -15.17,-11.793 -19.807,-20.714 -4.637,-8.971 -6.955,-19.58 -6.955,-31.8272 0,-11.9446 2.318,-22.4277 6.955,-31.4492 4.637,-9.0215 11.163,-16.0522 19.58,-21.0921 8.467,-5.04 18.39897,-7.5599 29.78897,-7.5599 7.66,0 14.79,1.2348 21.39,3.7043 6.65,2.4192 12.45,6.0732 17.39,10.9619 4.99,4.8887 8.87,11.0375 11.64,18.4462 2.77,7.3583 4.16,15.9766 4.16,25.8548 v 8.8452 H 977.12203 V 85.0488 h 67.73297 c 0,-4.6368 -1,-8.7443 -3.02,-12.3227 -2.02,-3.5783 -4.81,-6.3755 -8.39,-8.3915 -3.53,-2.0663 -7.64,-3.0995 -12.32,-3.0995 -4.89,0 -9.23,1.134 -13.01,3.4019 -3.73,2.2176 -6.65,5.2164 -8.76597,8.9963 -2.117,3.7296 -3.201,7.8875 -3.251,12.4739 v 18.9758 c 0,5.745 1.058,10.709 3.175,14.893 2.17197,4.183 5.21197,7.408 9.15197,9.676 3.93,2.268 8.59,3.402 13.98,3.402 3.58,0 6.86,-0.504 9.83,-1.512 2.97,-1.008 5.52,-2.52 7.63,-4.536 2.12,-2.016 3.73,-4.485 4.84,-7.408 l 29.79,1.965 c -1.51,7.157 -4.61,13.406 -9.3,18.749 -4.64,5.292 -10.63,9.424 -17.99,12.398 -7.31,2.923 -15.75,4.385 -25.33,4.385 z"
     fill="#9e9e9e"
     id="path62" />
  <path
     d="M 844.88503,198.372 V 38.7066 h 31.751 v 19.5045 h 1.437 c 1.411,-3.1248 3.452,-6.2999 6.123,-9.5255 2.722,-3.2759 6.25,-5.9975 10.584,-8.1647 4.385,-2.2175 9.828,-3.3263 16.329,-3.3263 8.468,0 16.279,2.2176 23.436,6.6527 7.157,4.3847 12.877,11.0123 17.161,19.8826 4.284,8.8198 6.426,19.8825 6.426,33.1879 0,12.9522 -2.092,23.8892 -6.275,32.8102 -4.132,8.87 -9.777,15.598 -16.934,20.185 -7.106,4.536 -15.069,6.804 -23.889,6.804 -6.25,0 -11.567,-1.033 -15.952,-3.1 -4.334,-2.066 -7.887,-4.662 -10.659,-7.787 -2.772,-3.175 -4.889,-6.375 -6.35,-9.601 h -0.983 v 62.143 z m 31.524,-101.6054 c 0,6.9044 0.958,12.9274 2.873,18.0684 1.915,5.141 4.687,9.147 8.316,12.02 3.629,2.822 8.039,4.234 13.23,4.234 5.242,0 9.677,-1.437 13.305,-4.31 3.629,-2.923 6.376,-6.955 8.241,-12.095 1.915,-5.192 2.872,-11.164 2.872,-17.9174 0,-6.7031 -0.932,-12.5998 -2.797,-17.6901 -1.864,-5.0904 -4.611,-9.0719 -8.24,-11.9447 -3.629,-2.8728 -8.089,-4.3091 -13.381,-4.3091 -5.242,0 -9.677,1.3859 -13.305,4.1579 -3.579,2.772 -6.326,6.7031 -8.241,11.7935 -1.915,5.0903 -2.873,11.0878 -2.873,17.9925 z"
     fill="#9e9e9e"
     id="path64" />
  <path
     d="m 777.43503,157.095 c -11.743,0 -21.898,-2.495 -30.466,-7.485 -8.518,-5.04 -15.095,-12.045 -19.732,-21.016 -4.636,-9.022 -6.955,-19.48 -6.955,-31.3738 0,-11.995 2.319,-22.4781 6.955,-31.4492 4.637,-9.0215 11.214,-16.027 19.732,-21.0165 8.568,-5.04 18.723,-7.5599 30.466,-7.5599 11.743,0 21.873,2.5199 30.391,7.5599 8.568,4.9895 15.17,11.995 19.807,21.0165 4.637,8.9711 6.955,19.4542 6.955,31.4492 0,11.8938 -2.318,22.3518 -6.955,31.3738 -4.637,8.971 -11.239,15.976 -19.807,21.016 -8.518,4.99 -18.648,7.485 -30.391,7.485 z m 0.151,-24.948 c 5.343,0 9.803,-1.512 13.381,-4.536 3.579,-3.074 6.275,-7.257 8.089,-12.549 1.865,-5.292 2.798,-11.315 2.798,-18.0686 0,-6.7535 -0.933,-12.7762 -2.798,-18.0681 -1.814,-5.292 -4.51,-9.4751 -8.089,-12.5495 -3.578,-3.0743 -8.038,-4.6115 -13.381,-4.6115 -5.392,0 -9.928,1.5372 -13.607,4.6115 -3.629,3.0744 -6.376,7.2575 -8.241,12.5495 -1.814,5.2919 -2.721,11.3146 -2.721,18.0681 0,6.7536 0.907,12.7766 2.721,18.0686 1.865,5.292 4.612,9.475 8.241,12.549 3.679,3.024 8.215,4.536 13.607,4.536 z"
     fill="#9e9e9e"
     id="path66" />
  <path
     d="M 653.91003,154.827 V 38.7066 h 31.222 v 20.2606 h 1.21 c 2.117,-7.2071 5.67,-12.6503 10.66,-16.3294 4.989,-3.7296 10.735,-5.5943 17.236,-5.5943 1.613,0 3.352,0.1008 5.216,0.3023 1.865,0.2017 3.503,0.4789 4.914,0.8316 v 28.5765 c -1.512,-0.4536 -3.603,-0.8568 -6.274,-1.2096 -2.671,-0.3528 -5.116,-0.5292 -7.333,-0.5292 -4.738,0 -8.972,1.0332 -12.701,3.0996 -3.679,2.0159 -6.602,4.8383 -8.77,8.4671 -2.116,3.6287 -3.175,7.8119 -3.175,12.5494 v 65.6958 z"
     fill="#9e9e9e"
     id="path68" />
  <path
     d="M 606.58903,105.385 V 38.7065 h 32.205 V 154.827 h -30.92 v -21.092 h -1.21 c -2.62,6.803 -6.98,12.272 -13.078,16.405 -6.048,4.132 -13.432,6.199 -22.151,6.199 -7.761,0 -14.59,-1.764 -20.487,-5.292 -5.897,-3.528 -10.508,-8.543 -13.835,-15.044 -3.276,-6.502 -4.939,-14.289 -4.989,-23.361 V 38.7065 h 32.205 v 68.1905 c 0.05,6.854 1.89,12.272 5.519,16.254 3.628,3.981 8.492,5.972 14.59,5.972 3.881,0 7.51,-0.882 10.887,-2.646 3.376,-1.814 6.098,-4.486 8.164,-8.013 2.117,-3.528 3.15,-7.888 3.1,-13.079 z"
     fill="#000000"
     id="path70" />
  <path
     d="M 413.02103,154.827 V 0 h 104.327 v 26.9889 h -71.592 v 36.8923 h 66.224 v 26.9889 h -66.224 v 36.9679 h 71.894 v 26.989 z"
     fill="#000000"
     id="path72" />
</svg>
