<svg width="349" height="349" viewBox="0 0 349 349" fill="none" xmlns="http://www.w3.org/2000/svg">
<path fill-rule="evenodd" clip-rule="evenodd" d="M348.635 0H0V348.635H348.635V0ZM338.635 10H10V338.635H103.635C233.422 338.635 338.635 245.945 338.635 103.635V10Z" fill="black"/>
<path d="M26.7668 317.152L28.2965 321.86L33.2466 321.86L29.2419 324.77L30.7715 329.477L26.7668 326.568L22.762 329.477L24.2917 324.77L20.287 321.86L25.2371 321.86L26.7668 317.152Z" fill="black"/>
<path d="M45.877 317.152L47.4067 321.86L52.3568 321.86L48.3521 324.77L49.8818 329.477L45.877 326.568L41.8723 329.477L43.4019 324.77L39.3972 321.86L44.3473 321.86L45.877 317.152Z" fill="black"/>
<path d="M65.4656 317.152L66.9953 321.86L71.9455 321.86L67.9407 324.77L69.4704 329.477L65.4656 326.568L61.4609 329.477L62.9906 324.77L58.9858 321.86L63.936 321.86L65.4656 317.152Z" fill="black"/>
<path d="M87.0542 316.152L88.5839 320.86L93.534 320.86L89.5293 323.77L91.0589 328.477L87.0542 325.568L83.0494 328.477L84.5791 323.77L80.5744 320.86L85.5245 320.86L87.0542 316.152Z" fill="black"/>
<path d="M109.141 315.152L110.67 319.86L115.621 319.86L111.616 322.77L113.145 327.477L109.141 324.568L105.136 327.477L106.666 322.77L102.661 319.86L107.611 319.86L109.141 315.152Z" fill="black"/>
<path d="M131.729 312.324L133.259 317.032L138.209 317.032L134.204 319.942L135.734 324.65L131.729 321.74L127.724 324.65L129.254 319.942L125.249 317.032L130.2 317.032L131.729 312.324Z" fill="black"/>
<path d="M156.288 305.511L157.817 310.219L162.767 310.219L158.763 313.129L160.292 317.837L156.288 314.927L152.283 317.837L153.813 313.129L149.808 310.219L154.758 310.219L156.288 305.511Z" fill="black"/>
<path d="M183.429 294.885L184.959 299.592L189.909 299.592L185.904 302.502L187.434 307.21L183.429 304.3L179.425 307.21L180.954 302.502L176.949 299.592L181.9 299.592L183.429 294.885Z" fill="black"/>
<path d="M213.862 267.745L216.34 275.372L224.359 275.372L217.872 280.085L220.35 287.712L213.862 282.998L207.374 287.712L209.852 280.085L203.365 275.372L211.384 275.372L213.862 267.745Z" fill="black"/>
<path d="M248.641 222.281L252.655 234.637L265.647 234.637L255.137 242.273L259.151 254.628L248.641 246.992L238.131 254.628L242.145 242.273L231.635 234.637L244.626 234.637L248.641 222.281Z" fill="black"/>
<path d="M274.686 145.351L281.19 165.366H302.236L285.209 177.737L291.713 197.752L274.686 185.382L257.66 197.752L264.164 177.737L247.137 165.366H268.183L274.686 145.351Z" fill="black"/>
<path d="M276.686 29.9436L287.222 62.3689H321.316L293.733 82.4089L304.269 114.834L276.686 94.7942L249.104 114.834L259.639 82.4089L232.057 62.3689H266.151L276.686 29.9436Z" fill="black"/>
</svg>
