<svg width="1938" height="349" viewBox="0 0 1938 349" fill="none" xmlns="http://www.w3.org/2000/svg">
<path fill-rule="evenodd" clip-rule="evenodd" d="M349.12 0H0.48497V348.635H349.12V0ZM339.12 10H10.485V338.635H104.12C233.907 338.635 339.12 245.945 339.12 103.635V10Z" fill="black"/>
<path d="M27.2517 317.152L28.7814 321.86L33.7315 321.86L29.7268 324.77L31.2565 329.477L27.2517 326.568L23.247 329.477L24.7766 324.77L20.7719 321.86L25.722 321.86L27.2517 317.152Z" fill="black"/>
<path d="M46.362 317.152L47.8917 321.86L52.8418 321.86L48.8371 324.77L50.3668 329.477L46.362 326.568L42.3573 329.477L43.8869 324.77L39.8822 321.86L44.8323 321.86L46.362 317.152Z" fill="black"/>
<path d="M65.9506 317.152L67.4803 321.86L72.4304 321.86L68.4257 324.77L69.9553 329.477L65.9506 326.568L61.9458 329.477L63.4755 324.77L59.4708 321.86L64.4209 321.86L65.9506 317.152Z" fill="black"/>
<path d="M87.5391 316.152L89.0688 320.86L94.019 320.86L90.0142 323.77L91.5439 328.477L87.5391 325.568L83.5344 328.477L85.0641 323.77L81.0593 320.86L86.0095 320.86L87.5391 316.152Z" fill="black"/>
<path d="M109.626 315.152L111.155 319.86L116.105 319.86L112.101 322.77L113.63 327.477L109.626 324.568L105.621 327.477L107.151 322.77L103.146 319.86L108.096 319.86L109.626 315.152Z" fill="black"/>
<path d="M132.214 312.324L133.744 317.032L138.694 317.032L134.689 319.942L136.219 324.65L132.214 321.74L128.209 324.65L129.739 319.942L125.734 317.032L130.685 317.032L132.214 312.324Z" fill="black"/>
<path d="M156.773 305.511L158.302 310.219L163.252 310.219L159.248 313.129L160.777 317.837L156.773 314.927L152.768 317.837L154.298 313.129L150.293 310.219L155.243 310.219L156.773 305.511Z" fill="black"/>
<path d="M183.914 294.885L185.444 299.592L190.394 299.592L186.389 302.502L187.919 307.21L183.914 304.3L179.91 307.21L181.439 302.502L177.434 299.592L182.385 299.592L183.914 294.885Z" fill="black"/>
<path d="M214.347 267.745L216.825 275.372L224.844 275.372L218.357 280.085L220.835 287.712L214.347 282.998L207.859 287.712L210.337 280.085L203.85 275.372L211.869 275.372L214.347 267.745Z" fill="black"/>
<path d="M249.126 222.281L253.14 234.637L266.132 234.637L255.621 242.273L259.636 254.628L249.126 246.992L238.616 254.628L242.63 242.273L232.12 234.637L245.111 234.637L249.126 222.281Z" fill="black"/>
<path d="M275.171 145.351L281.675 165.366H302.721L285.694 177.737L292.198 197.752L275.171 185.382L258.145 197.752L264.649 177.737L247.622 165.366H268.668L275.171 145.351Z" fill="black"/>
<path d="M277.171 29.9436L287.707 62.3689H321.801L294.218 82.4089L304.754 114.834L277.171 94.7942L249.589 114.834L260.124 82.4089L232.542 62.3689H266.636L277.171 29.9436Z" fill="black"/>
<path d="M1768.64 346.367V230.247H1799.34V250.734H1800.7C1803.12 243.93 1807.15 238.563 1812.79 234.632C1818.44 230.7 1825.19 228.735 1833.05 228.735C1841.02 228.735 1847.79 230.726 1853.39 234.707C1858.98 238.638 1862.71 243.981 1864.58 250.734H1865.79C1868.16 244.081 1872.44 238.764 1878.64 234.783C1884.89 230.751 1892.27 228.735 1900.79 228.735C1911.62 228.735 1920.42 232.187 1927.17 239.092C1933.98 245.946 1937.38 255.673 1937.38 268.273V346.367H1905.25V274.623C1905.25 268.172 1903.54 263.334 1900.11 260.108C1896.68 256.883 1892.4 255.27 1887.26 255.27C1881.41 255.27 1876.85 257.135 1873.57 260.864C1870.3 264.544 1868.66 269.407 1868.66 275.455V346.367H1837.44V273.943C1837.44 268.248 1835.8 263.712 1832.52 260.335C1829.3 256.959 1825.04 255.27 1819.75 255.27C1816.17 255.27 1812.94 256.177 1810.07 257.992C1807.25 259.756 1805.01 262.25 1803.34 265.476C1801.68 268.651 1800.85 272.381 1800.85 276.665V346.367H1768.64Z" fill="#9E9E9E"/>
<path d="M1756.36 263.359L1726.88 265.174C1726.37 262.654 1725.29 260.386 1723.63 258.37C1721.96 256.303 1719.77 254.665 1717.05 253.456C1714.38 252.196 1711.18 251.566 1707.45 251.566C1702.46 251.566 1698.25 252.624 1694.82 254.741C1691.4 256.807 1689.68 259.579 1689.68 263.057C1689.68 265.829 1690.79 268.172 1693.01 270.088C1695.23 272.003 1699.03 273.54 1704.42 274.699L1725.44 278.933C1736.73 281.251 1745.15 284.981 1750.69 290.121C1756.23 295.262 1759.01 302.016 1759.01 310.382C1759.01 317.992 1756.76 324.67 1752.28 330.416C1747.84 336.161 1741.74 340.647 1733.98 343.872C1726.27 347.047 1717.38 348.635 1707.3 348.635C1691.93 348.635 1679.68 345.435 1670.56 339.034C1661.48 332.583 1656.17 323.813 1654.6 312.725L1686.28 311.062C1687.24 315.749 1689.56 319.328 1693.24 321.797C1696.91 324.216 1701.63 325.426 1707.37 325.426C1713.02 325.426 1717.55 324.342 1720.98 322.175C1724.46 319.958 1726.22 317.11 1726.27 313.633C1726.22 310.709 1724.99 308.315 1722.57 306.451C1720.15 304.535 1716.42 303.074 1711.38 302.066L1691.27 298.059C1679.93 295.791 1671.49 291.86 1665.94 286.266C1660.45 280.671 1657.7 273.54 1657.7 264.871C1657.7 257.412 1659.72 250.986 1663.75 245.593C1667.83 240.201 1673.55 236.043 1680.91 233.12C1688.32 230.196 1696.99 228.735 1706.92 228.735C1721.59 228.735 1733.13 231.834 1741.54 238.034C1750.01 244.233 1754.95 252.675 1756.36 263.359Z" fill="#9E9E9E"/>
<path d="M1612.39 346.367V230.247H1644.59V346.367H1612.39ZM1628.56 215.278C1623.78 215.278 1619.67 213.691 1616.24 210.516C1612.86 207.29 1611.18 203.434 1611.18 198.949C1611.18 194.514 1612.86 190.709 1616.24 187.533C1619.67 184.308 1623.78 182.695 1628.56 182.695C1633.35 182.695 1637.43 184.308 1640.81 187.533C1644.24 190.709 1645.95 194.514 1645.95 198.949C1645.95 203.434 1644.24 207.29 1640.81 210.516C1637.43 213.691 1633.35 215.278 1628.56 215.278Z" fill="#9E9E9E"/>
<path d="M1522.81 279.235V346.367H1490.6V230.247H1521.29V250.734H1522.65C1525.22 243.981 1529.53 238.638 1535.58 234.707C1541.63 230.726 1548.96 228.735 1557.58 228.735C1565.64 228.735 1572.68 230.499 1578.67 234.027C1584.67 237.555 1589.33 242.595 1592.66 249.147C1595.98 255.648 1597.65 263.41 1597.65 272.431V346.367H1565.44V278.177C1565.49 271.07 1563.68 265.526 1560 261.545C1556.32 257.513 1551.26 255.497 1544.8 255.497C1540.47 255.497 1536.64 256.429 1533.31 258.294C1530.04 260.159 1527.47 262.88 1525.6 266.459C1523.79 269.987 1522.86 274.245 1522.81 279.235Z" fill="#9E9E9E"/>
<path d="M1423.15 348.635C1411.41 348.635 1401.25 346.14 1392.68 341.151C1384.17 336.111 1377.59 329.105 1372.95 320.134C1368.32 311.113 1366 300.655 1366 288.76C1366 276.765 1368.32 266.282 1372.95 257.311C1377.59 248.29 1384.17 241.284 1392.68 236.295C1401.25 231.255 1411.41 228.735 1423.15 228.735C1434.89 228.735 1445.02 231.255 1453.54 236.295C1462.11 241.284 1468.71 248.29 1473.35 257.311C1477.98 266.282 1480.3 276.765 1480.3 288.76C1480.3 300.655 1477.98 311.113 1473.35 320.134C1468.71 329.105 1462.11 336.111 1453.54 341.151C1445.02 346.14 1434.89 348.635 1423.15 348.635ZM1423.3 323.687C1428.64 323.687 1433.1 322.175 1436.68 319.151C1440.26 316.077 1442.96 311.894 1444.77 306.602C1446.64 301.31 1447.57 295.287 1447.57 288.534C1447.57 281.78 1446.64 275.757 1444.77 270.466C1442.96 265.174 1440.26 260.99 1436.68 257.916C1433.1 254.842 1428.64 253.305 1423.3 253.305C1417.91 253.305 1413.37 254.842 1409.69 257.916C1406.07 260.99 1403.32 265.174 1401.45 270.466C1399.64 275.757 1398.73 281.78 1398.73 288.534C1398.73 295.287 1399.64 301.31 1401.45 306.602C1403.32 311.894 1406.07 316.077 1409.69 319.151C1413.37 322.175 1417.91 323.687 1423.3 323.687Z" fill="#9E9E9E"/>
<path d="M1323.33 346.367V230.247H1355.53V346.367H1323.33ZM1339.5 215.278C1334.72 215.278 1330.61 213.691 1327.18 210.516C1323.8 207.29 1322.12 203.434 1322.12 198.949C1322.12 194.514 1323.8 190.709 1327.18 187.533C1330.61 184.308 1334.72 182.695 1339.5 182.695C1344.29 182.695 1348.37 184.308 1351.75 187.533C1355.18 190.709 1356.89 194.514 1356.89 198.949C1356.89 203.434 1355.18 207.29 1351.75 210.516C1348.37 213.691 1344.29 215.278 1339.5 215.278Z" fill="#9E9E9E"/>
<path d="M1312.99 230.247V254.439H1243.06V230.247H1312.99ZM1258.94 202.427H1291.14V310.684C1291.14 313.658 1291.6 315.976 1292.5 317.639C1293.41 319.252 1294.67 320.386 1296.28 321.041C1297.95 321.697 1299.86 322.024 1302.03 322.024C1303.54 322.024 1305.05 321.898 1306.57 321.646C1308.08 321.344 1309.24 321.117 1310.04 320.966L1315.11 344.931C1313.5 345.435 1311.23 346.014 1308.3 346.67C1305.38 347.375 1301.83 347.803 1297.64 347.955C1289.88 348.257 1283.08 347.224 1277.23 344.855C1271.44 342.486 1266.93 338.807 1263.7 333.818C1260.48 328.828 1258.89 322.528 1258.94 314.918V202.427Z" fill="#9E9E9E"/>
<path d="M1171.49 348.559C1164.08 348.559 1157.48 347.274 1151.69 344.704C1145.89 342.083 1141.3 338.227 1137.93 333.137C1134.6 327.996 1132.94 321.596 1132.94 313.935C1132.94 307.484 1134.12 302.066 1136.49 297.681C1138.86 293.296 1142.08 289.769 1146.17 287.097C1150.25 284.426 1154.89 282.41 1160.08 281.049C1165.32 279.689 1170.81 278.731 1176.56 278.177C1183.31 277.471 1188.75 276.816 1192.89 276.211C1197.02 275.556 1200.02 274.598 1201.88 273.338C1203.75 272.078 1204.68 270.214 1204.68 267.744V267.29C1204.68 262.502 1203.17 258.798 1200.14 256.177C1197.17 253.557 1192.94 252.246 1187.44 252.246C1181.65 252.246 1177.04 253.531 1173.61 256.102C1170.18 258.622 1167.91 261.797 1166.81 265.627L1137.02 263.208C1138.53 256.152 1141.5 250.054 1145.94 244.913C1150.38 239.722 1156.1 235.74 1163.1 232.968C1170.16 230.146 1178.32 228.735 1187.6 228.735C1194.05 228.735 1200.22 229.491 1206.12 231.003C1212.06 232.515 1217.33 234.858 1221.92 238.034C1226.55 241.209 1230.21 245.291 1232.88 250.281C1235.55 255.22 1236.89 261.142 1236.89 268.046V346.367H1206.34V330.264H1205.44C1203.57 333.893 1201.08 337.094 1197.95 339.865C1194.83 342.587 1191.07 344.729 1186.69 346.291C1182.3 347.803 1177.24 348.559 1171.49 348.559ZM1180.72 326.333C1185.45 326.333 1189.64 325.401 1193.27 323.536C1196.89 321.621 1199.74 319.051 1201.81 315.825C1203.87 312.599 1204.91 308.945 1204.91 304.863V292.54C1203.9 293.196 1202.51 293.8 1200.75 294.355C1199.04 294.859 1197.1 295.338 1194.93 295.791C1192.76 296.194 1190.59 296.572 1188.43 296.925C1186.26 297.228 1184.29 297.505 1182.53 297.757C1178.75 298.311 1175.45 299.193 1172.63 300.403C1169.8 301.612 1167.61 303.25 1166.05 305.317C1164.49 307.333 1163.71 309.853 1163.71 312.877C1163.71 317.261 1165.29 320.613 1168.47 322.931C1171.69 325.199 1175.78 326.333 1180.72 326.333Z" fill="#9E9E9E"/>
<path d="M1065.24 346.367V230.247H1096.46V250.507H1097.67C1099.79 243.3 1103.34 237.857 1108.33 234.178C1113.32 230.449 1119.07 228.584 1125.57 228.584C1127.18 228.584 1128.92 228.685 1130.79 228.886C1132.65 229.088 1134.29 229.365 1135.7 229.718V258.294C1134.19 257.841 1132.1 257.437 1129.43 257.085C1126.75 256.732 1124.31 256.555 1122.09 256.555C1117.35 256.555 1113.12 257.589 1109.39 259.655C1105.71 261.671 1102.79 264.493 1100.62 268.122C1098.51 271.751 1097.45 275.934 1097.45 280.671V346.367H1065.24Z" fill="#9E9E9E"/>
<path d="M1001.57 348.635C989.628 348.635 979.346 346.216 970.728 341.377C962.16 336.489 955.558 329.584 950.921 320.663C946.284 311.692 943.966 301.083 943.966 288.836C943.966 276.891 946.284 266.408 950.921 257.387C955.558 248.365 962.084 241.335 970.501 236.295C978.968 231.255 988.897 228.735 1000.29 228.735C1007.95 228.735 1015.08 229.97 1021.68 232.439C1028.33 234.858 1034.13 238.512 1039.07 243.401C1044.06 248.29 1047.94 254.439 1050.71 261.847C1053.48 269.206 1054.87 277.824 1054.87 287.702V296.547H956.818V276.589H1024.55C1024.55 271.952 1023.55 267.845 1021.53 264.266C1019.51 260.688 1016.72 257.891 1013.14 255.875C1009.61 253.809 1005.5 252.775 1000.82 252.775C995.928 252.775 991.593 253.909 987.813 256.177C984.084 258.395 981.161 261.394 979.044 265.174C976.927 268.903 975.843 273.061 975.793 277.647V296.623C975.793 302.368 976.851 307.333 978.968 311.516C981.135 315.699 984.185 318.925 988.116 321.192C992.047 323.46 996.709 324.594 1002.1 324.594C1005.68 324.594 1008.96 324.09 1011.93 323.082C1014.9 322.074 1017.45 320.562 1019.56 318.547C1021.68 316.531 1023.29 314.061 1024.4 311.138L1054.19 313.103C1052.68 320.26 1049.58 326.51 1044.89 331.852C1040.25 337.144 1034.26 341.277 1026.9 344.25C1019.59 347.173 1011.15 348.635 1001.57 348.635Z" fill="#9E9E9E"/>
<path d="M933.499 191.54V346.367H901.294V191.54H933.499Z" fill="#9E9E9E"/>
<path d="M837.625 348.635C825.68 348.635 815.398 346.216 806.78 341.377C798.212 336.489 791.61 329.584 786.973 320.663C782.336 311.692 780.018 301.083 780.018 288.836C780.018 276.891 782.336 266.408 786.973 257.387C791.61 248.365 798.137 241.335 806.553 236.295C815.02 231.255 824.949 228.735 836.339 228.735C844 228.735 851.132 229.97 857.734 232.439C864.387 234.858 870.183 238.512 875.122 243.401C880.111 248.29 883.992 254.439 886.764 261.847C889.536 269.206 890.922 277.824 890.922 287.702V296.547H792.87V276.589H860.607C860.607 271.952 859.599 267.845 857.583 264.266C855.567 260.688 852.77 257.891 849.191 255.875C845.663 253.809 841.556 252.775 836.869 252.775C831.98 252.775 827.645 253.909 823.866 256.177C820.136 258.395 817.213 261.394 815.096 265.174C812.979 268.903 811.896 273.061 811.845 277.647V296.623C811.845 302.368 812.904 307.333 815.02 311.516C817.188 315.699 820.237 318.925 824.168 321.192C828.099 323.46 832.761 324.594 838.154 324.594C841.732 324.594 845.008 324.09 847.982 323.082C850.955 322.074 853.5 320.562 855.617 318.547C857.734 316.531 859.347 314.061 860.455 311.138L890.241 313.103C888.73 320.26 885.63 326.51 880.943 331.852C876.306 337.144 870.309 341.277 862.95 344.25C855.642 347.173 847.2 348.635 837.625 348.635Z" fill="#9E9E9E"/>
<path d="M722.869 348.635C710.975 348.635 700.744 346.115 692.176 341.075C683.658 335.985 677.106 328.929 672.52 319.907C667.984 310.886 665.716 300.504 665.716 288.76C665.716 276.866 668.009 266.434 672.596 257.462C677.232 248.441 683.809 241.41 692.327 236.37C700.844 231.28 710.975 228.735 722.718 228.735C732.848 228.735 741.718 230.574 749.329 234.254C756.939 237.933 762.962 243.099 767.397 249.751C771.832 256.404 774.276 264.216 774.73 273.187H744.339C743.482 267.391 741.214 262.729 737.535 259.201C733.906 255.623 729.144 253.834 723.247 253.834C718.257 253.834 713.898 255.195 710.168 257.916C706.489 260.587 703.616 264.493 701.55 269.634C699.484 274.775 698.45 280.999 698.45 288.307C698.45 295.716 699.458 302.016 701.474 307.207C703.541 312.398 706.439 316.354 710.168 319.076C713.898 321.797 718.257 323.158 723.247 323.158C726.926 323.158 730.227 322.402 733.15 320.89C736.124 319.378 738.568 317.186 740.484 314.313C742.449 311.39 743.734 307.887 744.339 303.805H774.73C774.226 312.675 771.807 320.487 767.472 327.24C763.188 333.944 757.267 339.185 749.707 342.965C742.147 346.745 733.201 348.635 722.869 348.635Z" fill="black"/>
<path d="M608.567 348.635C596.673 348.635 586.442 346.115 577.874 341.075C569.356 335.985 562.804 328.929 558.218 319.907C553.682 310.886 551.414 300.504 551.414 288.76C551.414 276.866 553.707 266.434 558.294 257.462C562.93 248.441 569.507 241.41 578.025 236.37C586.542 231.28 596.673 228.735 608.416 228.735C618.546 228.735 627.416 230.574 635.027 234.254C642.637 237.933 648.66 243.099 653.095 249.751C657.53 256.404 659.974 264.216 660.428 273.187H630.037C629.18 267.391 626.912 262.729 623.233 259.201C619.604 255.623 614.842 253.834 608.945 253.834C603.955 253.834 599.596 255.195 595.866 257.916C592.187 260.587 589.314 264.493 587.248 269.634C585.182 274.775 584.148 280.999 584.148 288.307C584.148 295.716 585.156 302.016 587.172 307.207C589.239 312.398 592.137 316.354 595.866 319.076C599.596 321.797 603.955 323.158 608.945 323.158C612.624 323.158 615.925 322.402 618.848 320.89C621.822 319.378 624.266 317.186 626.182 314.313C628.147 311.39 629.432 307.887 630.037 303.805H660.428C659.924 312.675 657.505 320.487 653.17 327.24C648.886 333.944 642.965 339.185 635.405 342.965C627.845 346.745 618.899 348.635 608.567 348.635Z" fill="black"/>
<path d="M440.193 346.367H405.115L458.563 191.54H500.748L554.121 346.367H519.043L480.26 226.92H479.051L440.193 346.367ZM438 285.51H520.857V311.062H438V285.51Z" fill="black"/>
<path d="M1231.08 87.6947V154.827H1198.88V38.7066H1229.57V59.1939H1230.93C1233.5 52.4404 1237.81 47.0981 1243.86 43.1669C1249.91 39.1854 1257.24 37.1946 1265.86 37.1946C1273.92 37.1946 1280.95 38.9586 1286.95 42.4865C1292.95 46.0145 1297.61 51.0544 1300.94 57.6063C1304.26 64.1078 1305.93 71.8693 1305.93 80.8908V154.827H1273.72V86.6364C1273.77 79.53 1271.96 73.9861 1268.28 70.0046C1264.6 65.9726 1259.53 63.9566 1253.08 63.9566C1248.75 63.9566 1244.92 64.889 1241.59 66.7538C1238.32 68.6186 1235.75 71.3401 1233.88 74.9185C1232.07 78.4465 1231.13 82.7052 1231.08 87.6947Z" fill="#9E9E9E"/>
<path d="M1119.14 157.019C1111.74 157.019 1105.13 155.734 1099.34 153.164C1093.54 150.543 1088.95 146.687 1085.58 141.597C1082.25 136.456 1080.59 130.055 1080.59 122.395C1080.59 115.944 1081.77 110.526 1084.14 106.141C1086.51 101.756 1089.74 98.2282 1093.82 95.557C1097.9 92.8859 1102.54 90.8699 1107.73 89.5091C1112.97 88.1483 1118.46 87.1907 1124.21 86.6364C1130.96 85.9308 1136.41 85.2756 1140.54 84.6708C1144.67 84.0156 1147.67 83.058 1149.53 81.798C1151.4 80.538 1152.33 78.6733 1152.33 76.2037V75.7501C1152.33 70.9622 1150.82 67.2578 1147.8 64.637C1144.82 62.0163 1140.59 60.7059 1135.1 60.7059C1129.3 60.7059 1124.69 61.9911 1121.26 64.5614C1117.83 67.0814 1115.57 70.2566 1114.46 74.0869L1084.67 71.6677C1086.18 64.6118 1089.16 58.5135 1093.59 53.3728C1098.03 48.1816 1103.75 44.2001 1110.75 41.4281C1117.81 38.6058 1125.97 37.1946 1135.25 37.1946C1141.7 37.1946 1147.87 37.9506 1153.77 39.4625C1159.72 40.9745 1164.98 43.3181 1169.57 46.4933C1174.21 49.6684 1177.86 53.7508 1180.53 58.7403C1183.2 63.6794 1184.54 69.6014 1184.54 76.5061V154.827H1154V138.724H1153.09C1151.22 142.353 1148.73 145.553 1145.6 148.325C1142.48 151.047 1138.72 153.189 1134.34 154.751C1129.95 156.263 1124.89 157.019 1119.14 157.019ZM1128.37 134.793C1133.1 134.793 1137.29 133.861 1140.92 131.996C1144.55 130.081 1147.39 127.51 1149.46 124.285C1151.53 121.059 1152.56 117.405 1152.56 113.323V101C1151.55 101.655 1150.16 102.26 1148.4 102.815C1146.69 103.319 1144.75 103.797 1142.58 104.251C1140.41 104.654 1138.25 105.032 1136.08 105.385C1133.91 105.687 1131.95 105.965 1130.18 106.217C1126.4 106.771 1123.1 107.653 1120.28 108.862C1117.46 110.072 1115.26 111.71 1113.7 113.776C1112.14 115.792 1111.36 118.312 1111.36 121.336C1111.36 125.721 1112.94 129.073 1116.12 131.391C1119.35 133.659 1123.43 134.793 1128.37 134.793Z" fill="#9E9E9E"/>
<path d="M1022.36 157.095C1010.42 157.095 1000.14 154.675 991.518 149.837C982.95 144.948 976.348 138.044 971.711 129.123C967.074 120.152 964.756 109.543 964.756 97.2958C964.756 85.3512 967.074 74.8681 971.711 65.8466C976.348 56.8251 982.874 49.7944 991.291 44.7545C999.758 39.7145 1009.69 37.1946 1021.08 37.1946C1028.74 37.1946 1035.87 38.4294 1042.47 40.8989C1049.12 43.3181 1054.92 46.9721 1059.86 51.8608C1064.85 56.7495 1068.73 62.8983 1071.5 70.307C1074.27 77.6653 1075.66 86.2836 1075.66 96.1618V105.007H977.607V85.0488H1045.34C1045.34 80.412 1044.34 76.3045 1042.32 72.7261C1040.3 69.1478 1037.51 66.3506 1033.93 64.3346C1030.4 62.2683 1026.29 61.2351 1021.61 61.2351C1016.72 61.2351 1012.38 62.3691 1008.6 64.637C1004.87 66.8546 1001.95 69.8534 999.834 73.6333C997.717 77.3629 996.633 81.5208 996.583 86.1072V105.083C996.583 110.828 997.641 115.792 999.758 119.976C1001.93 124.159 1004.97 127.384 1008.91 129.652C1012.84 131.92 1017.5 133.054 1022.89 133.054C1026.47 133.054 1029.75 132.55 1032.72 131.542C1035.69 130.534 1038.24 129.022 1040.35 127.006C1042.47 124.99 1044.08 122.521 1045.19 119.598L1074.98 121.563C1073.47 128.72 1070.37 134.969 1065.68 140.312C1061.04 145.604 1055.05 149.736 1047.69 152.71C1040.38 155.633 1031.94 157.095 1022.36 157.095Z" fill="#9E9E9E"/>
<path d="M845.37 198.372V38.7066H877.121V58.2111H878.558C879.969 55.0863 882.01 51.9112 884.681 48.6856C887.403 45.4097 890.931 42.6881 895.265 40.5209C899.65 38.3034 905.093 37.1946 911.594 37.1946C920.062 37.1946 927.873 39.4122 935.03 43.8473C942.187 48.232 947.907 54.8596 952.191 63.7299C956.475 72.5497 958.617 83.6124 958.617 96.9178C958.617 109.87 956.525 120.807 952.342 129.728C948.21 138.598 942.565 145.326 935.408 149.913C928.302 154.449 920.339 156.717 911.519 156.717C905.269 156.717 899.952 155.684 895.567 153.617C891.233 151.551 887.68 148.955 884.908 145.83C882.136 142.655 880.019 139.455 878.558 136.229H877.575V198.372H845.37ZM876.894 96.7666C876.894 103.671 877.852 109.694 879.767 114.835C881.682 119.976 884.454 123.982 888.083 126.855C891.712 129.677 896.122 131.089 901.313 131.089C906.555 131.089 910.99 129.652 914.618 126.779C918.247 123.856 920.994 119.824 922.859 114.684C924.774 109.492 925.731 103.52 925.731 96.7666C925.731 90.0635 924.799 84.1668 922.934 79.0765C921.07 73.9861 918.323 70.0046 914.694 67.1318C911.065 64.259 906.605 62.8227 901.313 62.8227C896.071 62.8227 891.636 64.2086 888.008 66.9806C884.429 69.7526 881.682 73.6837 879.767 78.7741C877.852 83.8644 876.894 89.8619 876.894 96.7666Z" fill="#9E9E9E"/>
<path d="M777.92 157.095C766.177 157.095 756.022 154.6 747.454 149.61C738.936 144.57 732.359 137.565 727.722 128.594C723.086 119.572 720.767 109.114 720.767 97.2202C720.767 85.2252 723.086 74.7421 727.722 65.771C732.359 56.7495 738.936 49.744 747.454 44.7545C756.022 39.7145 766.177 37.1946 777.92 37.1946C789.663 37.1946 799.793 39.7145 808.311 44.7545C816.879 49.744 823.481 56.7495 828.118 65.771C832.755 74.7421 835.073 85.2252 835.073 97.2202C835.073 109.114 832.755 119.572 828.118 128.594C823.481 137.565 816.879 144.57 808.311 149.61C799.793 154.6 789.663 157.095 777.92 157.095ZM778.071 132.147C783.414 132.147 787.874 130.635 791.452 127.611C795.031 124.537 797.727 120.354 799.541 115.062C801.406 109.77 802.339 103.747 802.339 96.9934C802.339 90.2399 801.406 84.2172 799.541 78.9253C797.727 73.6333 795.031 69.4502 791.452 66.3758C787.874 63.3015 783.414 61.7643 778.071 61.7643C772.679 61.7643 768.143 63.3015 764.464 66.3758C760.835 69.4502 758.088 73.6333 756.223 78.9253C754.409 84.2172 753.502 90.2399 753.502 96.9934C753.502 103.747 754.409 109.77 756.223 115.062C758.088 120.354 760.835 124.537 764.464 127.611C768.143 130.635 772.679 132.147 778.071 132.147Z" fill="#9E9E9E"/>
<path d="M654.395 154.827V38.7066H685.617V58.9672H686.827C688.944 51.7601 692.497 46.3169 697.487 42.6378C702.476 38.9082 708.222 37.0435 714.723 37.0435C716.336 37.0435 718.075 37.1443 719.939 37.3458C721.804 37.5475 723.442 37.8247 724.853 38.1774V66.7539C723.341 66.3003 721.25 65.8971 718.579 65.5443C715.908 65.1915 713.463 65.0151 711.246 65.0151C706.508 65.0151 702.274 66.0483 698.545 68.1147C694.866 70.1306 691.943 72.953 689.775 76.5818C687.659 80.2105 686.6 84.3937 686.6 89.1312V154.827H654.395Z" fill="#9E9E9E"/>
<path d="M607.074 105.385V38.7065H639.279V154.827H608.359V133.735H607.149C604.529 140.538 600.169 146.007 594.071 150.14C588.023 154.272 580.639 156.339 571.92 156.339C564.159 156.339 557.33 154.575 551.433 151.047C545.536 147.519 540.925 142.504 537.598 136.003C534.322 129.501 532.659 121.714 532.609 112.642V38.7065H564.814V106.897C564.864 113.751 566.704 119.169 570.333 123.151C573.961 127.132 578.825 129.123 584.923 129.123C588.804 129.123 592.433 128.241 595.81 126.477C599.186 124.663 601.908 121.991 603.974 118.464C606.091 114.936 607.124 110.576 607.074 105.385Z" fill="black"/>
<path d="M413.506 154.827V0H517.833V26.9889H446.241V63.8812H512.465V90.8701H446.241V127.838H518.135V154.827H413.506Z" fill="black"/>
</svg>
