<svg viewBox="0 0 300 300" fill="none" xmlns="http://www.w3.org/2000/svg"><path fill-rule="evenodd" clip-rule="evenodd" d="M299.686 0H0v299.686h299.686V0zm-8.596 8.596H8.596V291.09h80.489c111.564 0 202.005-79.676 202.005-202.005V8.595z" fill="#000"/><path d="M23.009 272.623l1.315 4.047h4.255l-3.443 2.502 1.315 4.046-3.442-2.501-3.443 2.501 1.315-4.046-3.442-2.502h4.255l1.315-4.047zm16.427 0l1.315 4.047h4.255l-3.443 2.502 1.315 4.046-3.442-2.501-3.443 2.501 1.315-4.046-3.442-2.502h4.255l1.315-4.047zm16.838 0l1.315 4.047h4.255l-3.442 2.502 1.315 4.046-3.443-2.501-3.442 2.501 1.315-4.046-3.443-2.502h4.255l1.315-4.047zm18.558-.859l1.315 4.047h4.255l-3.443 2.501 1.315 4.046-3.442-2.5-3.443 2.5 1.315-4.046-3.442-2.501h4.255l1.315-4.047zm18.986-.86l1.314 4.047h4.256l-3.443 2.502 1.314 4.046-3.442-2.501-3.442 2.501 1.315-4.046-3.443-2.502h4.255l1.316-4.047zm19.416-2.431l1.315 4.047h4.255l-3.442 2.502 1.315 4.047-3.443-2.502-3.443 2.502 1.316-4.047-3.443-2.502h4.256l1.314-4.047zm21.111-5.856l1.314 4.047h4.255l-3.442 2.501 1.315 4.047-3.442-2.501-3.443 2.501 1.315-4.047-3.442-2.501h4.255l1.315-4.047zm23.33-9.134l1.315 4.046h4.255l-3.442 2.501 1.315 4.047-3.443-2.501-3.442 2.501 1.315-4.047-3.443-2.501h4.256l1.314-4.046zm26.161-23.33l2.13 6.556h6.893l-5.576 4.052 2.13 6.556-5.577-4.052-5.578 4.052 2.131-6.556-5.577-4.052h6.893l2.131-6.556zm29.896-39.08l3.45 10.621h11.168l-9.035 6.564 3.451 10.62-9.034-6.564-9.035 6.564 3.451-10.62-9.035-6.564h11.167l3.452-10.621zm22.388-66.129l5.591 17.204h18.091l-14.637 10.635 5.591 17.204-14.636-10.633-14.636 10.633 5.591-17.204-14.636-10.635h18.091l5.59-17.204zm1.719-99.204l9.057 27.872h29.307l-23.71 17.227 9.056 27.872-23.71-17.226-23.709 17.226 9.055-27.872-23.709-17.227h29.307l9.056-27.873z" fill="#000"/></svg>