<svg viewBox="0 0 659 301" fill="none" xmlns="http://www.w3.org/2000/svg"><path fill-rule="evenodd" clip-rule="evenodd" d="M348 299.092h29.515l9.664-29.706h47.037l9.645 29.706h29.515l-44.909-130.274h-35.495L348 299.092zm79.235-51.206l-16.007-49.299h-1.017l-16.038 49.299h33.062z" fill="#fff"/><path d="M519.188 301c-10.008 0-18.617-2.12-25.826-6.361-7.167-4.283-12.68-10.22-16.539-17.811-3.816-7.59-5.725-16.326-5.725-26.208 0-10.007 1.93-18.785 5.789-26.334 3.901-7.591 9.435-13.507 16.602-17.747 7.167-4.283 15.691-6.425 25.572-6.425 8.523 0 15.987 1.548 22.391 4.644 6.403 3.096 11.471 7.442 15.202 13.04 3.732 5.597 5.788 12.171 6.17 19.719h-25.571c-.721-4.877-2.629-8.8-5.725-11.768-3.054-3.011-7.06-4.516-12.022-4.516-4.199 0-7.867 1.145-11.005 3.435-3.096 2.247-5.513 5.534-7.251 9.859-1.739 4.326-2.609 9.563-2.609 15.712 0 6.234.848 11.535 2.545 15.903 1.739 4.368 4.177 7.696 7.315 9.987 3.138 2.289 6.806 3.434 11.005 3.434 3.095 0 5.873-.636 8.332-1.908 2.503-1.272 4.559-3.117 6.171-5.534 1.654-2.459 2.735-5.407 3.244-8.842h25.571c-.424 7.464-2.459 14.037-6.107 19.719-3.604 5.641-8.586 10.051-14.947 13.231-6.361 3.181-13.889 4.771-22.582 4.771zm96.175 0c-10.007 0-18.616-2.12-25.825-6.361-7.167-4.283-12.68-10.22-16.539-17.811-3.817-7.59-5.725-16.326-5.725-26.208 0-10.007 1.929-18.785 5.789-26.334 3.901-7.591 9.435-13.507 16.602-17.747 7.166-4.283 15.691-6.425 25.571-6.425 8.524 0 15.987 1.548 22.391 4.644 6.403 3.096 11.471 7.442 15.203 13.04 3.732 5.597 5.788 12.171 6.17 19.719h-25.571c-.722-4.877-2.63-8.8-5.725-11.768-3.054-3.011-7.061-4.516-12.023-4.516-4.198 0-7.866 1.145-11.005 3.435-3.095 2.247-5.512 5.534-7.251 9.859-1.738 4.326-2.608 9.563-2.608 15.712 0 6.234.848 11.535 2.544 15.903 1.739 4.368 4.178 7.696 7.315 9.987 3.139 2.289 6.807 3.434 11.005 3.434 3.096 0 5.873-.636 8.333-1.908 2.502-1.272 4.559-3.117 6.171-5.534 1.653-2.459 2.734-5.407 3.244-8.842H659c-.424 7.464-2.459 14.037-6.107 19.719-3.605 5.641-8.587 10.051-14.948 13.231-6.361 3.181-13.888 4.771-22.582 4.771zM354.845 12.319v130.273h88.036v-22.708h-60.493V88.778h55.722V66.07h-55.722V35.028h60.239v-22.71h-87.782zm162.871 88.672V44.887h27.098v97.705h-26.017v-17.747h-1.018c-2.204 5.724-5.873 10.326-11.004 13.804-5.089 3.476-11.302 5.216-18.638 5.216-6.53 0-12.276-1.485-17.238-4.453-4.962-2.969-8.842-7.188-11.641-12.658-2.757-5.471-4.156-12.023-4.198-19.657v-62.21h27.098v57.376c.042 5.767 1.59 10.326 4.643 13.677 3.053 3.349 7.146 5.025 12.277 5.025 3.265 0 6.319-.742 9.16-2.227 2.841-1.526 5.131-3.774 6.87-6.742 1.781-2.968 2.65-6.637 2.608-11.005z" fill="#fff"/><path d="M621.791.632h27.379L594.412 154.15h-27.38L621.791.632z" fill="#fff" fill-opacity=".6"/><path fill-rule="evenodd" clip-rule="evenodd" d="M299.686 1H0v299.686h299.686V1zm-8.596 8.596H8.596V292.09h80.489c111.564 0 202.005-79.676 202.005-202.005V9.595z" fill="#fff"/><path d="M23.009 273.623l1.315 4.047h4.255l-3.443 2.502 1.315 4.046-3.442-2.501-3.443 2.501 1.315-4.046-3.442-2.502h4.255l1.315-4.047zm16.427 0l1.315 4.047h4.255l-3.443 2.502 1.315 4.046-3.442-2.501-3.443 2.501 1.315-4.046-3.442-2.502h4.255l1.315-4.047zm16.838 0l1.315 4.047h4.255l-3.442 2.502 1.315 4.046-3.443-2.501-3.442 2.501 1.315-4.046-3.443-2.502h4.255l1.315-4.047zm18.558-.859l1.315 4.047h4.255l-3.443 2.501 1.315 4.046-3.442-2.5-3.443 2.5 1.315-4.046-3.442-2.501h4.255l1.315-4.047zm18.986-.86l1.314 4.047h4.256l-3.443 2.502 1.314 4.046-3.442-2.501-3.442 2.501 1.315-4.046-3.443-2.502h4.255l1.316-4.047zm19.416-2.431l1.315 4.047h4.255l-3.442 2.502 1.315 4.047-3.443-2.502-3.443 2.502 1.316-4.047-3.443-2.502h4.256l1.314-4.047zm21.111-5.856l1.314 4.047h4.255l-3.442 2.501 1.315 4.047-3.442-2.501-3.443 2.501 1.315-4.047-3.442-2.501h4.255l1.315-4.047zm23.33-9.134l1.315 4.046h4.255l-3.442 2.501 1.315 4.047-3.443-2.501-3.442 2.501 1.315-4.047-3.443-2.501h4.256l1.314-4.046zm26.161-23.33l2.13 6.556h6.893l-5.576 4.052 2.13 6.556-5.577-4.052-5.578 4.052 2.131-6.556-5.577-4.052h6.893l2.131-6.556zm29.896-39.08l3.45 10.621h11.168l-9.035 6.564 3.451 10.62-9.034-6.564-9.035 6.564 3.451-10.62-9.035-6.564h11.167l3.452-10.621zm22.388-66.129l5.591 17.204h18.091l-14.637 10.635 5.591 17.204-14.636-10.633-14.636 10.633 5.591-17.204-14.636-10.635h18.091l5.59-17.204zm1.719-99.204l9.057 27.872h29.307l-23.71 17.227 9.056 27.872-23.71-17.226-23.709 17.226 9.055-27.872-23.709-17.227h29.307l9.056-27.873z" fill="#fff"/></svg>