<svg viewBox="0 0 888 225" fill="none" xmlns="http://www.w3.org/2000/svg"><path d="M281.404 47.952V181.18h90.033v-23.224h-61.865v-31.811h56.986v-23.224h-56.986V71.175h61.605V47.952h-89.773zm166.565 90.683V81.258h27.712v99.922h-26.606v-18.15h-1.041c-2.255 5.854-6.007 10.56-11.254 14.117-5.204 3.555-11.558 5.334-19.061 5.334-6.678 0-12.555-1.518-17.629-4.554-5.074-3.036-9.042-7.351-11.905-12.945-2.819-5.595-4.25-12.296-4.293-20.102V81.258h27.712v58.678c.043 5.898 1.627 10.56 4.75 13.987 3.121 3.425 7.307 5.139 12.554 5.139 3.34 0 6.463-.759 9.368-2.277 2.905-1.561 5.248-3.86 7.026-6.895 1.821-3.036 2.71-6.788 2.667-11.255z" fill="#fff"/><path fill-rule="evenodd" clip-rule="evenodd" d="M552.5 179.228h30.185l9.883-30.379h48.103l9.864 30.379h30.184L634.792 46h-36.3L552.5 179.228zm81.032-52.367l-16.37-50.416h-1.04l-16.401 50.416h33.811z" fill="#fff"/><path d="M727.57 181.18c-10.234 0-19.038-2.168-26.411-6.505-7.33-4.38-12.968-10.452-16.914-18.215-3.903-7.763-5.855-16.697-5.855-26.802 0-10.235 1.973-19.212 5.92-26.932 3.99-7.763 9.649-13.813 16.979-18.15 7.329-4.38 16.047-6.57 26.151-6.57 8.717 0 16.35 1.583 22.899 4.75 6.548 3.165 11.731 7.61 15.548 13.335 3.816 5.724 5.919 12.447 6.31 20.166h-26.152c-.737-4.987-2.689-8.999-5.855-12.035-3.122-3.079-7.22-4.618-12.294-4.618-4.294 0-8.045 1.171-11.255 3.512-3.166 2.299-5.638 5.66-7.416 10.084-1.778 4.424-2.667 9.779-2.667 16.068 0 6.375.867 11.796 2.602 16.263 1.779 4.467 4.272 7.871 7.481 10.214 3.21 2.341 6.961 3.512 11.255 3.512 3.165 0 6.006-.65 8.521-1.951 2.559-1.302 4.662-3.188 6.311-5.66 1.691-2.515 2.797-5.53 3.317-9.042h26.152c-.434 7.633-2.516 14.355-6.246 20.166-3.686 5.768-8.781 10.278-15.287 13.531-6.505 3.253-14.203 4.879-23.094 4.879zm98.357 0c-10.235 0-19.039-2.168-26.411-6.505-7.33-4.38-12.968-10.452-16.914-18.215-3.903-7.763-5.855-16.697-5.855-26.802 0-10.235 1.973-19.212 5.92-26.932 3.989-7.763 9.649-13.813 16.979-18.15 7.329-4.38 16.046-6.57 26.151-6.57 8.717 0 16.35 1.583 22.899 4.75 6.548 3.165 11.731 7.61 15.547 13.335 3.817 5.724 5.92 12.447 6.31 20.166h-26.151c-.738-4.987-2.689-8.999-5.855-12.035-3.123-3.079-7.22-4.618-12.295-4.618-4.294 0-8.045 1.171-11.254 3.512-3.166 2.299-5.638 5.66-7.416 10.084-1.778 4.424-2.668 9.779-2.668 16.068 0 6.375.868 11.796 2.603 16.263 1.778 4.467 4.272 7.871 7.481 10.214 3.209 2.341 6.96 3.512 11.254 3.512 3.166 0 6.007-.65 8.522-1.951 2.559-1.302 4.662-3.188 6.311-5.66 1.691-2.515 2.796-5.53 3.317-9.042h26.151c-.433 7.633-2.515 14.355-6.245 20.166-3.687 5.768-8.782 10.278-15.287 13.531-6.505 3.253-14.203 4.879-23.094 4.879z" fill="#fff"/><path d="M545 36h28l-56 157h-28l56-157z" fill="#fff" fill-opacity=".6"/><path fill-rule="evenodd" clip-rule="evenodd" d="M224.765 0H0v224.765h224.765V0zm-6.447 6.447H6.447v211.871h60.366c83.674 0 151.505-59.757 151.505-151.505V6.447z" fill="#fff"/><path d="M17.256 204.468l.987 3.035h3.191l-2.582 1.876.986 3.035-2.582-1.876-2.581 1.876.986-3.035-2.582-1.876h3.191l.986-3.035zm12.32 0l.987 3.035h3.191l-2.581 1.876.986 3.035-2.582-1.876-2.582 1.876.986-3.035-2.582-1.876h3.192l.986-3.035zm12.63 0l.986 3.035h3.191l-2.582 1.876.986 3.035-2.581-1.876-2.582 1.876.986-3.035-2.582-1.876h3.191l.987-3.035zm13.918-.645l.986 3.035h3.191l-2.582 1.876.987 3.035-2.582-1.876-2.582 1.876.986-3.035-2.582-1.876h3.192l.986-3.035zm14.24-.645l.985 3.035h3.192l-2.582 1.877.986 3.034-2.582-1.875-2.582 1.875.986-3.034-2.581-1.877h3.19l.987-3.035zm14.562-1.823l.986 3.035h3.191l-2.582 1.876.987 3.036-2.582-1.877-2.582 1.877.986-3.036-2.582-1.876h3.192l.986-3.035zm15.833-4.392l.985 3.035h3.192l-2.582 1.876.986 3.035-2.581-1.876-2.582 1.876.986-3.035-2.582-1.876h3.191l.987-3.035zm17.497-6.851l.987 3.035h3.191l-2.582 1.876.986 3.035-2.582-1.876-2.581 1.876.986-3.035-2.582-1.876h3.192l.985-3.035zm19.621-17.497l1.597 4.917h5.17l-4.182 3.039 1.597 4.917-4.182-3.039-4.183 3.039 1.597-4.917-4.182-3.039h5.17l1.598-4.917zm22.422-29.311l2.587 7.966h8.376l-6.775 4.923 2.587 7.965-6.775-4.922-6.776 4.922 2.588-7.965-6.776-4.923h8.375l2.589-7.966zm16.791-49.596l4.193 12.903h13.568l-10.977 7.976 4.193 12.904-10.977-7.975-10.977 7.975 4.193-12.904-10.977-7.976h13.568l4.193-12.903zm1.289-74.403l6.793 20.904h21.98l-17.783 12.92 6.793 20.904-17.783-12.92-17.782 12.92 6.792-20.904-17.782-12.92h21.98l6.792-20.904z" fill="#fff"/></svg>