<svg viewBox="0 0 1667 300" fill="none" xmlns="http://www.w3.org/2000/svg"><path d="M562.689 33.307v99.922h27.712V76.697c0-4.076.911-7.676 2.732-10.798 1.866-3.123 4.381-5.552 7.547-7.286 3.209-1.778 6.852-2.667 10.929-2.667 1.908 0 4.012.151 6.31.455 2.298.303 4.098.65 5.399 1.04v-24.59c-1.214-.303-2.624-.541-4.229-.715-1.604-.173-3.1-.26-4.488-.26-5.594 0-10.539 1.604-14.832 4.814-4.294 3.166-7.351 7.85-9.173 14.051h-1.041V33.307h-26.866z" fill="#fff" fill-opacity=".6"/><path fill-rule="evenodd" clip-rule="evenodd" d="M668.982 135.18c-10.105 0-18.843-2.147-26.216-6.441-7.33-4.337-12.989-10.364-16.979-18.084-3.99-7.763-5.985-16.763-5.985-26.997 0-10.322 1.995-19.343 5.985-27.062 3.99-7.763 9.649-13.791 16.979-18.085 7.373-4.337 16.111-6.505 26.216-6.505s18.822 2.168 26.151 6.505c7.373 4.294 13.054 10.322 17.044 18.085 3.99 7.72 5.985 16.74 5.985 27.062 0 10.234-1.995 19.234-5.985 26.997-3.99 7.72-9.671 13.747-17.044 18.084-7.329 4.294-16.046 6.441-26.151 6.441zm.13-21.468c4.598 0 8.435-1.301 11.514-3.903 3.08-2.645 5.4-6.244 6.961-10.798 1.605-4.554 2.407-9.737 2.407-15.548 0-5.812-.802-10.994-2.407-15.548-1.561-4.554-3.881-8.153-6.961-10.799-3.079-2.645-6.916-3.968-11.514-3.968-4.64 0-8.543 1.323-11.709 3.968-3.123 2.646-5.486 6.245-7.091 10.8-1.561 4.553-2.342 9.735-2.342 15.547 0 5.811.781 10.994 2.342 15.548 1.605 4.554 3.968 8.153 7.091 10.798 3.166 2.602 7.069 3.903 11.709 3.903z" fill="#fff" fill-opacity=".6"/><path d="M1058.93 75.461v57.767h-27.71V33.307h26.41v17.63h1.17c2.21-5.812 5.92-10.41 11.12-13.792 5.21-3.426 11.52-5.139 18.93-5.139 6.94 0 12.99 1.518 18.15 4.554 5.16 3.035 9.17 7.372 12.04 13.01 2.86 5.595 4.29 12.273 4.29 20.036v63.622h-27.71V74.551c.04-6.115-1.52-10.886-4.68-14.312-3.17-3.47-7.53-5.204-13.08-5.204-3.73 0-7.03.802-9.89 2.407-2.81 1.604-5.03 3.946-6.64 7.025-1.55 3.036-2.36 6.7-2.4 10.994zm79.38 122.666v99.921h27.7v-99.921h-27.7zm3.31-16.978c2.95 2.732 6.49 4.098 10.6 4.098 4.12 0 7.63-1.366 10.54-4.098 2.95-2.776 4.42-6.094 4.42-9.954 0-3.816-1.47-7.09-4.42-9.823-2.91-2.775-6.42-4.163-10.54-4.163-4.11 0-7.65 1.388-10.6 4.163-2.91 2.733-4.35 6.007-4.35 9.823 0 3.86 1.44 7.178 4.35 9.954zm245.42 116.899v-99.921h27.71v99.921h-27.71zm13.92-112.801c-4.12 0-7.65-1.366-10.6-4.098-2.91-2.776-4.36-6.094-4.36-9.954 0-3.816 1.45-7.09 4.36-9.823 2.95-2.775 6.48-4.163 10.6-4.163 4.12 0 7.63 1.388 10.54 4.163 2.95 2.733 4.42 6.007 4.42 9.823 0 3.86-1.47 7.178-4.42 9.954-2.91 2.732-6.42 4.098-10.54 4.098zm84.6 42.935l25.37-1.562c-1.21-9.193-5.47-16.458-12.75-21.792-7.24-5.335-17.17-8.002-29.79-8.002-8.55 0-16.01 1.257-22.39 3.774-6.33 2.515-11.25 6.093-14.76 10.733-3.47 4.64-5.21 10.17-5.21 16.588 0 7.46 2.37 13.596 7.09 18.411 4.78 4.813 12.04 8.196 21.8 10.147l17.3 3.448c4.34.868 7.55 2.125 9.63 3.774 2.08 1.604 3.14 3.664 3.19 6.18-.05 2.992-1.56 5.443-4.56 7.35-2.95 1.865-6.85 2.798-11.71 2.798-4.94 0-9-1.041-12.16-3.123-3.16-2.125-5.16-5.204-5.99-9.237l-27.26 1.431c1.35 9.541 5.92 17.087 13.74 22.638 7.85 5.508 18.39 8.262 31.61 8.262 8.68 0 16.33-1.366 22.96-4.098 6.68-2.776 11.93-6.636 15.75-11.579 3.85-4.945 5.79-10.691 5.79-17.24 0-7.199-2.39-13.01-7.16-17.434-4.77-4.423-12.01-7.633-21.73-9.627l-18.09-3.644c-4.63-.997-7.9-2.32-9.81-3.968-1.91-1.648-2.87-3.664-2.87-6.05 0-2.993 1.48-5.378 4.42-7.156 2.95-1.821 6.58-2.732 10.87-2.732 3.21 0 5.96.542 8.26 1.627 2.34 1.04 4.23 2.449 5.66 4.228a13.203 13.203 0 0 1 2.8 5.855zm35.94-30.055v99.921h27.71V238.07c0-3.686.72-6.896 2.14-9.628 1.44-2.776 3.37-4.922 5.8-6.44 2.47-1.562 5.24-2.342 8.33-2.342 4.55 0 8.21 1.453 10.98 4.358 2.83 2.906 4.24 6.809 4.24 11.71v62.32h26.86v-61.019c0-5.205 1.41-9.389 4.23-12.556 2.82-3.209 6.74-4.813 11.78-4.813 4.42 0 8.1 1.388 11.06 4.163 2.95 2.776 4.42 6.939 4.42 12.49v61.735h27.65v-67.199c0-10.843-2.93-19.213-8.79-25.111-5.81-5.941-13.38-8.912-22.7-8.912-7.33 0-13.68 1.735-19.06 5.205-5.33 3.425-9.02 8-11.06 13.725h-1.04c-1.61-5.811-4.82-10.408-9.63-13.791-4.82-3.426-10.64-5.139-17.5-5.139-6.76 0-12.57 1.691-17.43 5.075-4.86 3.382-8.32 8.001-10.41 13.855h-1.17v-17.629h-26.41zm-211.54 99.921v-57.767c.04-4.293.84-7.957 2.4-10.993 1.61-3.08 3.82-5.421 6.63-7.026 2.87-1.605 6.17-2.407 9.89-2.407 5.56 0 9.91 1.735 13.08 5.204 3.17 3.426 4.72 8.196 4.68 14.312v58.677h27.72v-63.621c0-7.763-1.44-14.442-4.3-20.036-2.86-5.638-6.87-9.975-12.03-13.011-5.16-3.036-11.22-4.554-18.15-4.554-7.42 0-13.73 1.713-18.93 5.139-5.21 3.383-8.92 7.98-11.13 13.791h-1.17v-17.629h-26.41v99.921h27.72z" fill="#fff" fill-opacity=".6"/><path fill-rule="evenodd" clip-rule="evenodd" d="M1224.2 300c-10.1 0-18.84-2.147-26.22-6.44-7.32-4.337-12.98-10.366-16.98-18.085-3.98-7.763-5.98-16.762-5.98-26.997 0-10.322 2-19.343 5.98-27.062 4-7.763 9.66-13.791 16.98-18.084 7.38-4.337 16.12-6.506 26.22-6.506 10.1 0 18.82 2.169 26.15 6.506 7.38 4.293 13.06 10.321 17.05 18.084 3.98 7.719 5.98 16.74 5.98 27.062 0 10.235-2 19.234-5.98 26.997-3.99 7.719-9.67 13.748-17.05 18.085-7.33 4.293-16.05 6.44-26.15 6.44zm.13-21.468c4.6 0 8.43-1.301 11.51-3.903 3.08-2.645 5.41-6.245 6.97-10.798 1.6-4.554 2.4-9.737 2.4-15.548 0-5.812-.8-10.994-2.4-15.547-1.56-4.554-3.89-8.154-6.97-10.8-3.08-2.645-6.91-3.967-11.51-3.967-4.64 0-8.54 1.322-11.71 3.967-3.12 2.646-5.48 6.246-7.09 10.8-1.56 4.553-2.34 9.735-2.34 15.547 0 5.811.78 10.994 2.34 15.548 1.61 4.553 3.97 8.153 7.09 10.798 3.17 2.602 7.07 3.903 11.71 3.903z" fill="#fff" fill-opacity=".6"/><path d="M1129.41 198.127v20.818h-18.8v48.398c0 2.559.39 4.554 1.17 5.985.78 1.388 1.86 2.364 3.25 2.927 1.44.565 3.08.846 4.95.846 1.3 0 2.6-.108 3.9-.325 1.3-.26 2.3-.455 2.99-.585l4.36 20.622c-1.38.433-3.34.932-5.86 1.496-2.51.607-5.56.975-9.17 1.106-6.68.26-12.53-.629-17.56-2.668-4.98-2.038-8.87-5.204-11.65-9.497-2.77-4.294-4.13-9.715-4.09-16.263v-52.042h-13.67v-20.818h13.67v-23.939h27.71v23.939h18.8z" fill="#fff" fill-opacity=".6"/><path fill-rule="evenodd" clip-rule="evenodd" d="M990.61 296.617c4.983 2.212 10.66 3.318 17.04 3.318 4.95 0 9.3-.651 13.08-1.952 3.77-1.344 7-3.187 9.69-5.53a28.245 28.245 0 0 0 6.44-8.261h.78v13.856h26.28v-67.395c0-5.941-1.15-11.036-3.45-15.286-2.29-4.294-5.44-7.807-9.43-10.539-3.95-2.733-8.48-4.749-13.59-6.05-5.08-1.301-10.39-1.952-15.94-1.952-7.98 0-15.01 1.214-21.08 3.643-6.025 2.385-10.947 5.812-14.767 10.278-3.821 4.424-6.377 9.672-7.676 15.743l25.633 2.082c.95-3.296 2.9-6.028 5.85-8.196 2.95-2.213 6.92-3.319 11.9-3.319 4.74 0 8.38 1.129 10.93 3.383 2.61 2.255 3.91 5.443 3.91 9.563v.39c0 2.126-.8 3.73-2.41 4.814-1.6 1.084-4.18 1.909-7.74 2.472-3.56.521-8.24 1.084-14.05 1.692-4.95.477-9.67 1.301-14.18 2.471-4.466 1.172-8.459 2.906-11.969 5.205-3.52 2.299-6.291 5.334-8.33 9.107-2.039 3.773-3.055 8.436-3.055 13.987 0 6.592 1.429 12.099 4.294 16.523 2.9 4.38 6.849 7.698 11.84 9.953zm35.78-18.215c-3.12 1.605-6.73 2.407-10.8 2.407-4.25 0-7.77-.976-10.54-2.927-2.74-1.995-4.1-4.879-4.1-8.652 0-2.602.67-4.77 2.02-6.505 1.34-1.779 3.22-3.188 5.66-4.229 2.43-1.041 5.27-1.8 8.52-2.276 1.51-.217 3.21-.456 5.08-.716 1.85-.304 3.72-.629 5.59-.976 1.87-.39 3.54-.802 5.01-1.236 1.51-.477 2.71-.997 3.58-1.562v10.604c0 3.513-.9 6.657-2.67 9.433-1.78 2.776-4.23 4.988-7.35 6.635z" fill="#fff" fill-opacity=".6"/><path d="M916.22 298.048v-99.921h26.865v17.434h1.041c1.825-6.202 4.879-10.885 9.173-14.051 4.294-3.209 9.242-4.814 14.835-4.814 1.386 0 2.883.087 4.492.26 1.601.174 3.012.412 4.225.716v24.59c-1.299-.39-3.098-.738-5.395-1.041-2.306-.303-4.406-.456-6.316-.456-4.079 0-7.719.89-10.929 2.668-3.166 1.735-5.679 4.163-7.546 7.286-1.816 3.122-2.728 6.722-2.728 10.798v56.531H916.22z" fill="#fff" fill-opacity=".6"/><path fill-rule="evenodd" clip-rule="evenodd" d="M834.893 293.755c7.416 4.164 16.263 6.245 26.539 6.245 8.244 0 15.507-1.258 21.797-3.773 6.333-2.559 11.488-6.115 15.48-10.669 4.036-4.597 6.704-9.975 8.003-16.133l-25.634-1.691c-.955 2.515-2.341 4.641-4.165 6.375-1.816 1.734-4.01 3.035-6.566 3.903-2.555.867-5.378 1.301-8.458 1.301-4.639 0-8.651-.976-12.034-2.928-3.382-1.95-6.007-4.726-7.872-8.326-1.821-3.599-2.732-7.872-2.732-12.815v-.066h68.046v-7.611c0-8.5-1.196-15.916-3.58-22.248-2.383-6.375-5.722-11.666-10.016-15.873-4.251-4.207-9.242-7.351-14.964-9.432-5.679-2.125-11.815-3.188-18.406-3.188-9.804 0-18.348 2.169-25.633 6.506-7.243 4.337-12.859 10.386-16.849 18.149-3.99 7.763-5.985 16.783-5.985 27.062 0 10.539 1.995 19.668 5.985 27.387 3.99 7.677 9.671 13.618 17.044 17.825zm46.314-55.75h-41.93c.167-3.588 1.091-6.863 2.772-9.823 1.822-3.253 4.337-5.833 7.546-7.742 3.252-1.952 6.983-2.927 11.192-2.927 4.027 0 7.564.889 10.601 2.667 3.081 1.735 5.482 4.142 7.22 7.221 1.738 3.079 2.599 6.613 2.599 10.604z" fill="#fff" fill-opacity=".6"/><path d="M802.857 164.82v133.228h-27.712V164.82h27.712z" fill="#fff" fill-opacity=".6"/><path fill-rule="evenodd" clip-rule="evenodd" d="M693.816 293.755c7.416 4.164 16.263 6.245 26.542 6.245 8.239 0 15.504-1.258 21.792-3.773 6.333-2.559 11.493-6.115 15.483-10.669 4.033-4.597 6.701-9.975 8.001-16.133l-25.631-1.691c-.953 2.515-2.341 4.641-4.163 6.375s-4.012 3.035-6.57 3.903c-2.559.867-5.378 1.301-8.457 1.301-4.64 0-8.652-.976-12.035-2.928-3.382-1.95-6.006-4.726-7.872-8.326-1.82-3.599-2.732-7.872-2.732-12.815v-.066h68.046v-7.611c0-8.5-1.193-15.916-3.578-22.248-2.385-6.375-5.725-11.666-10.018-15.873-4.25-4.207-9.237-7.351-14.962-9.432-5.681-2.125-11.818-3.188-18.411-3.188-9.801 0-18.345 2.169-25.63 6.506-7.242 4.337-12.859 10.386-16.849 18.149-3.99 7.763-5.985 16.783-5.985 27.062 0 10.539 1.995 19.668 5.985 27.387 3.99 7.677 9.671 13.618 17.044 17.825zm46.318-55.75h-41.933c.167-3.588 1.09-6.863 2.771-9.823 1.822-3.253 4.337-5.833 7.546-7.742 3.252-1.952 6.983-2.927 11.189-2.927 4.034 0 7.568.889 10.604 2.667 3.079 1.735 5.486 4.142 7.221 7.221 1.735 3.079 2.602 6.613 2.602 10.604zm205.429-106.208c4.983 2.212 10.671 3.318 17.038 3.318 4.948 0 9.302-.651 13.08-1.952 3.769-1.344 7.004-3.187 9.689-5.529 2.693-2.386 4.836-5.139 6.445-8.262h.783v13.856h26.282V65.833c0-5.941-1.16-11.037-3.45-15.287-2.3-4.293-5.44-7.806-9.43-10.538-3.95-2.733-8.48-4.75-13.6-6.05-5.077-1.301-10.386-1.952-15.936-1.952-7.986 0-15.007 1.214-21.082 3.643-6.024 2.385-10.946 5.811-14.767 10.278-3.812 4.424-6.376 9.671-7.675 15.743l25.634 2.082c.955-3.296 2.9-6.029 5.852-8.197 2.951-2.212 6.918-3.318 11.909-3.318 4.724 0 8.364 1.128 10.928 3.383 2.599 2.255 3.898 5.443 3.898 9.563v.39c0 2.125-.8 3.73-2.409 4.814-1.601 1.084-4.182 1.908-7.736 2.472-3.554.52-8.244 1.084-14.052 1.692-4.948.477-9.672 1.3-14.181 2.471-4.466 1.171-8.459 2.906-11.97 5.205-3.51 2.298-6.29 5.334-8.329 9.107-2.04 3.773-3.055 8.436-3.055 13.987 0 6.591 1.428 12.099 4.294 16.523 2.9 4.38 6.849 7.698 11.84 9.953zm35.78-18.215c-3.124 1.605-6.729 2.407-10.799 2.407-4.251 0-7.762-.976-10.541-2.927-2.737-1.995-4.096-4.879-4.096-8.652 0-2.603.671-4.771 2.013-6.506 1.343-1.778 3.236-3.187 5.662-4.228 2.427-1.04 5.266-1.8 8.519-2.276 1.523-.217 3.21-.456 5.077-.716 1.867-.304 3.726-.63 5.593-.976a64.64 64.64 0 0 0 5.008-1.236c1.515-.477 2.711-.998 3.58-1.562v10.604c0 3.513-.886 6.657-2.667 9.433-1.782 2.775-4.225 4.988-7.349 6.635zM879.322 135.18c-10.274 0-19.12-2.082-26.539-6.245-7.373-4.207-13.054-10.148-17.044-17.825-3.99-7.719-5.985-16.848-5.985-27.387 0-10.278 1.995-19.299 5.985-27.062 3.99-7.763 9.606-13.813 16.848-18.15 7.286-4.337 15.833-6.505 25.634-6.505 6.591 0 12.727 1.063 18.406 3.188 5.722 2.081 10.713 5.225 14.964 9.432 4.294 4.207 7.632 9.498 10.016 15.873 2.384 6.332 3.58 13.748 3.58 22.248v7.612h-68.046v.065c0 4.943.911 9.215 2.732 12.815 1.869 3.6 4.485 6.375 7.875 8.326 3.382 1.952 7.392 2.928 12.03 2.928 3.081 0 5.903-.434 8.459-1.301 2.556-.868 4.75-2.169 6.566-3.903 1.824-1.735 3.209-3.86 4.164-6.375l25.635 1.691c-1.3 6.158-3.967 11.536-8.003 16.133-3.993 4.554-9.147 8.11-15.48 10.669-6.291 2.515-13.553 3.773-21.797 3.773zm-19.383-71.819c-1.681 2.961-2.605 6.235-2.772 9.823h41.929c0-3.99-.86-7.524-2.598-10.603-1.739-3.08-4.139-5.486-7.22-7.221-3.037-1.778-6.574-2.667-10.601-2.667-4.208 0-7.943.976-11.195 2.927-3.21 1.908-5.723 4.489-7.543 7.741zM727.023 33.307v137.392h27.712v-53.474h.846c1.257 2.776 3.079 5.53 5.464 8.262 2.385 2.689 5.443 4.923 9.172 6.7 3.773 1.779 8.349 2.668 13.727 2.668 7.589 0 14.441-1.952 20.556-5.855 6.159-3.947 11.016-9.737 14.572-17.369 3.599-7.677 5.399-17.088 5.399-28.233 0-11.45-1.843-20.969-5.529-28.558-3.687-7.633-8.609-13.336-14.767-17.11-6.159-3.816-12.88-5.724-20.167-5.724-5.594 0-10.278.954-14.051 2.862-3.729 1.865-6.765 4.207-9.107 7.026-2.299 2.776-4.055 5.508-5.269 8.197h-1.237V33.307h-27.321zm29.598 65.508c-1.648-4.423-2.472-9.606-2.472-15.547 0-5.942.824-11.103 2.472-15.483 1.648-4.38 4.012-7.763 7.091-10.148 3.122-2.386 6.939-3.578 11.449-3.578 4.554 0 8.392 1.236 11.515 3.708 3.122 2.472 5.486 5.898 7.09 10.278 1.605 4.38 2.407 9.455 2.407 15.223 0 5.81-.823 10.95-2.471 15.418-1.605 4.422-3.969 7.892-7.092 10.407-3.122 2.472-6.938 3.709-11.449 3.709-4.466 0-8.261-1.215-11.384-3.643-3.123-2.473-5.508-5.92-7.156-10.344z" fill="#fff" fill-opacity=".6"/><path d="M355.404 0v133.228h90.033v-23.224h-61.865v-31.81h56.986V54.97h-56.986V23.224h61.605V0h-89.773zm166.565 90.684V33.307h27.712v99.921h-26.606v-18.149h-1.041c-2.255 5.854-6.007 10.56-11.254 14.116-5.204 3.556-11.558 5.335-19.061 5.335-6.678 0-12.555-1.518-17.629-4.554-5.074-3.036-9.042-7.351-11.905-12.946-2.819-5.595-4.25-12.295-4.293-20.102V33.307h27.712v58.678c.043 5.898 1.627 10.56 4.75 13.986 3.121 3.426 7.307 5.139 12.554 5.139 3.34 0 6.463-.759 9.368-2.277 2.906-1.561 5.248-3.86 7.026-6.895 1.821-3.036 2.71-6.788 2.667-11.254z" fill="#fff"/><path fill-rule="evenodd" clip-rule="evenodd" d="M348.184 298.048h30.184l9.883-30.38h48.104l9.864 30.38h30.184L430.476 164.82h-36.3l-45.992 133.228zm81.032-52.367l-16.37-50.417h-1.041l-16.401 50.417h33.812z" fill="#fff"/><path d="M523.254 300c-10.235 0-19.039-2.168-26.411-6.505-7.33-4.38-12.968-10.452-16.914-18.215-3.904-7.763-5.855-16.697-5.855-26.802 0-10.235 1.973-19.212 5.92-26.932 3.989-7.763 9.649-13.813 16.979-18.15 7.328-4.38 16.046-6.57 26.151-6.57 8.717 0 16.349 1.583 22.899 4.749 6.548 3.166 11.731 7.611 15.547 13.335 3.816 5.725 5.92 12.448 6.31 20.167h-26.151c-.738-4.987-2.689-8.999-5.855-12.035-3.123-3.079-7.22-4.618-12.295-4.618-4.294 0-8.045 1.171-11.254 3.512-3.166 2.299-5.638 5.66-7.416 10.084-1.778 4.424-2.668 9.779-2.668 16.068 0 6.375.868 11.796 2.603 16.263 1.778 4.467 4.272 7.871 7.481 10.214 3.209 2.341 6.96 3.512 11.254 3.512 3.166 0 6.006-.65 8.522-1.952 2.559-1.301 4.662-3.187 6.311-5.659 1.69-2.515 2.796-5.53 3.317-9.042h26.151c-.433 7.632-2.515 14.355-6.245 20.166-3.687 5.768-8.782 10.278-15.287 13.531-6.505 3.253-14.203 4.879-23.094 4.879zm98.357 0c-10.235 0-19.039-2.168-26.412-6.505-7.329-4.38-12.967-10.452-16.914-18.215-3.903-7.763-5.854-16.697-5.854-26.802 0-10.235 1.973-19.212 5.92-26.932 3.989-7.763 9.649-13.813 16.978-18.15 7.329-4.38 16.047-6.57 26.152-6.57 8.717 0 16.349 1.583 22.898 4.749 6.549 3.166 11.732 7.611 15.548 13.335 3.816 5.725 5.919 12.448 6.31 20.167h-26.151c-.738-4.987-2.69-8.999-5.855-12.035-3.123-3.079-7.221-4.618-12.295-4.618-4.294 0-8.045 1.171-11.255 3.512-3.165 2.299-5.638 5.66-7.415 10.084-1.778 4.424-2.668 9.779-2.668 16.068 0 6.375.868 11.796 2.602 16.263 1.779 4.467 4.273 7.871 7.481 10.214 3.21 2.341 6.961 3.512 11.255 3.512 3.166 0 6.006-.65 8.521-1.952 2.56-1.301 4.663-3.187 6.311-5.659 1.691-2.515 2.797-5.53 3.318-9.042h26.151c-.434 7.632-2.515 14.355-6.246 20.166-3.686 5.768-8.781 10.278-15.286 13.531-6.506 3.253-14.204 4.879-23.094 4.879z" fill="#fff"/><path fill-rule="evenodd" clip-rule="evenodd" d="M299.686 0H0v299.686h299.686V0zm-8.596 8.596H8.596V291.09h80.489c111.564 0 202.005-79.676 202.005-202.005V8.595z" fill="#fff"/><path d="M23.009 272.623l1.315 4.047h4.255l-3.443 2.502 1.315 4.046-3.442-2.501-3.443 2.501 1.315-4.046-3.442-2.502h4.255l1.315-4.047zm16.427 0l1.315 4.047h4.255l-3.443 2.502 1.315 4.046-3.442-2.501-3.443 2.501 1.315-4.046-3.442-2.502h4.255l1.315-4.047zm16.838 0l1.315 4.047h4.255l-3.442 2.502 1.315 4.046-3.443-2.501-3.442 2.501 1.315-4.046-3.443-2.502h4.255l1.315-4.047zm18.558-.859l1.315 4.047h4.255l-3.443 2.501 1.315 4.046-3.442-2.5-3.443 2.5 1.315-4.046-3.442-2.501h4.255l1.315-4.047zm18.986-.86l1.314 4.047h4.256l-3.443 2.502 1.314 4.046-3.442-2.501-3.442 2.501 1.315-4.046-3.443-2.502h4.255l1.316-4.047zm19.416-2.431l1.315 4.047h4.255l-3.442 2.502 1.315 4.047-3.443-2.502-3.443 2.502 1.316-4.047-3.443-2.502h4.256l1.314-4.047zm21.111-5.856l1.314 4.047h4.255l-3.442 2.501 1.315 4.047-3.442-2.501-3.443 2.501 1.315-4.047-3.442-2.501h4.255l1.315-4.047zm23.33-9.134l1.315 4.046h4.255l-3.442 2.501 1.315 4.047-3.443-2.501-3.442 2.501 1.315-4.047-3.443-2.501h4.256l1.314-4.046zm26.161-23.33l2.13 6.556h6.893l-5.576 4.052 2.13 6.556-5.577-4.052-5.578 4.052 2.131-6.556-5.577-4.052h6.893l2.131-6.556zm29.896-39.08l3.45 10.621h11.168l-9.035 6.564 3.451 10.62-9.034-6.564-9.035 6.564 3.451-10.62-9.035-6.564h11.167l3.452-10.621zm22.388-66.129l5.591 17.204h18.091l-14.637 10.635 5.591 17.204-14.636-10.633-14.636 10.633 5.591-17.204-14.636-10.635h18.091l5.59-17.204zm1.719-99.204l9.057 27.872h29.307l-23.71 17.227 9.056 27.872-23.71-17.226-23.709 17.226 9.055-27.872-23.709-17.227h29.307l9.056-27.873z" fill="#fff"/></svg>