<svg fill="none" viewBox="0 0 33 32" xmlns="http://www.w3.org/2000/svg" xmlns:xlink="http://www.w3.org/1999/xlink"><clipPath id="a"><path d="m0 0h32v32h-32z" transform="translate(.5)"/></clipPath><mask id="b" height="25" maskUnits="userSpaceOnUse" width="33" x="0" y="4"><path d="m32.503 4.002h-32v24.774h32z" fill="#fff"/></mask><g clip-path="url(#a)"><g mask="url(#b)"><path d="m27.593 6.208a26.398 26.398 0 0 0 -6.514-2.019.099.099 0 0 0 -.104.05c-.282.5-.593 1.152-.811 1.665a24.376 24.376 0 0 0 -7.316 0 16.85 16.85 0 0 0 -.824-1.665.103.103 0 0 0 -.104-.05 26.325 26.325 0 0 0 -6.514 2.02.093.093 0 0 0 -.042.036c-4.149 6.194-5.285 12.236-4.728 18.203a.11.11 0 0 0 .042.075 26.541 26.541 0 0 0 7.99 4.036.103.103 0 0 0 .112-.036 18.954 18.954 0 0 0 1.635-2.658.101.101 0 0 0 -.055-.14c-.87-.33-1.7-.733-2.497-1.19a.103.103 0 0 1 -.01-.17c.168-.125.336-.256.496-.388a.1.1 0 0 1 .103-.014c5.237 2.39 10.907 2.39 16.082 0a.099.099 0 0 1 .105.013c.16.132.328.264.497.39a.103.103 0 0 1 -.009.17 16.41 16.41 0 0 1 -2.497 1.187.102.102 0 0 0 -.055.142c.48.93 1.03 1.816 1.634 2.656.025.036.07.051.112.038a26.454 26.454 0 0 0 8.003-4.036.102.102 0 0 0 .042-.074c.667-6.898-1.118-12.89-4.732-18.203a.081.081 0 0 0 -.041-.038zm-16.396 14.607c-1.577 0-2.876-1.447-2.876-3.224 0-1.776 1.274-3.223 2.876-3.223 1.615 0 2.901 1.46 2.876 3.223 0 1.777-1.274 3.224-2.876 3.224zm10.633 0c-1.577 0-2.876-1.447-2.876-3.224 0-1.776 1.274-3.223 2.876-3.223 1.614 0 2.9 1.46 2.876 3.223 0 1.777-1.262 3.224-2.876 3.224z" fill="#5865f2"/></g></g></svg>