<svg xmlns="http://www.w3.org/2000/svg" viewBox="0 0 32 32" fill="none"><path fill="#161614" d="M16 0C7.165 0 0 7.175 0 16.026c0 7.08 4.585 13.087 10.942 15.206.8.149 1.093-.348 1.093-.77 0-.383-.015-1.645-.022-2.984-4.45.969-5.39-1.891-5.39-1.891-.728-1.852-1.777-2.345-1.777-2.345-1.451-.995.11-.974.11-.974 1.606.113 2.452 1.651 2.452 1.651 1.427 2.45 3.743 1.742 4.657 1.332.143-1.035.558-1.742 1.015-2.143-3.554-.405-7.29-1.779-7.29-7.92 0-1.75.626-3.179 1.65-4.3-.167-.405-.715-2.035.154-4.242 0 0 1.344-.43 4.401 1.643A15.314 15.314 0 0 1 16 7.749c1.36.007 2.73.185 4.008.54 3.054-2.074 4.396-1.643 4.396-1.643.87 2.207.323 3.837.157 4.241 1.026 1.122 1.646 2.552 1.646 4.302 0 6.155-3.742 7.51-7.305 7.907.574.497 1.085 1.472 1.085 2.967 0 2.145-.019 3.87-.019 4.398 0 .427.288.926 1.1.77C27.42 29.108 32 23.103 32 16.025 32 7.175 24.836 0 16 0zM5.993 22.829c-.036.08-.16.103-.275.049-.116-.053-.18-.161-.143-.241.034-.082.16-.105.275-.05.117.052.183.162.143.242zm.787.703c-.077.071-.226.038-.327-.074-.105-.112-.124-.261-.047-.333.079-.07.223-.038.328.074.105.113.125.261.046.333zm.54.9c-.099.068-.259.004-.358-.138-.098-.143-.098-.314.002-.382.1-.069.257-.007.358.135.098.144.098.315-.002.385zm.913 1.042c-.088.097-.275.071-.412-.061-.14-.13-.178-.313-.09-.41.088-.097.276-.07.414.062.139.129.181.313.088.41zm1.18.352c-.039.126-.219.183-.4.13-.181-.055-.3-.203-.263-.33.038-.126.218-.185.401-.128.18.055.3.2.262.328zm1.343.15c.004.132-.15.241-.34.244-.19.004-.346-.103-.348-.233 0-.134.15-.242.342-.245.19-.004.346.102.346.233zm1.32-.051c.022.129-.11.261-.3.296-.185.034-.357-.045-.38-.173-.023-.132.111-.265.297-.299.189-.033.358.045.382.176z"/></svg>