<svg fill="none" viewBox="0 0 33 32" xmlns="http://www.w3.org/2000/svg" xmlns:xlink="http://www.w3.org/1999/xlink"><clipPath id="a"><path d="m0 0h32v32h-32z" transform="translate(.5)"/></clipPath><g clip-path="url(#a)" clip-rule="evenodd" fill-rule="evenodd"><path d="m17 7.87a2.91 2.91 0 0 1 2.343-2.853l10.182-2.02a2.91 2.91 0 0 1 3.475 2.855v16.283a2.909 2.909 0 0 1 -2.343 2.854l-10.182 2.02a2.91 2.91 0 0 1 -3.475-2.856z" fill="#b7f0ef" opacity=".7"/><path d="m1 5.852a2.91 2.91 0 0 1 3.475-2.852l10.182 2.02a2.91 2.91 0 0 1 2.343 2.851v16.283a2.91 2.91 0 0 1 -3.475 2.854l-10.182-2.02a2.91 2.91 0 0 1 -2.343-2.852z" fill="#87e6e5"/><path d="m15.543 5.713s1.273.25 1.857.864c.585.613 1.052 2.454 1.052 2.454v17.932c0 1.852.925 4.454.925 4.454l-1.977-2.522-1.142 2.522s-.715-2.34-.715-4.295v-21.41z" fill="#61c1fd"/></g></svg>